<?xml version="1.0" encoding="UTF-8"?>
<svg id="Layer_1" xmlns="http://www.w3.org/2000/svg" version="1.1" viewBox="0 0 223.67 42">
  <!-- Generator: Adobe Illustrator 30.4.0, SVG Export Plug-In . SVG Version: 2.1.4 Build 226)  -->
  <defs>
    <style>
      .st0 {
        fill: #fff;
      }
    </style>
  </defs>
  <path class="st0" d="M205.41,42c2.14,0,4.15-1.58,8.17-10.01,2.74-5.99,4.79-11.29,6.93-16.72.68-1.75,1.03-2.1,2.1-2.4.77-.21,1.07-.51,1.07-.98,0-.43-.26-.81-.9-.81-.94,0-2.05.13-3.34.13s-2.31-.13-3.29-.13c-.6,0-.9.34-.9.77,0,.47.3.77.98.98,1.88.51,2.05,1.33,1.33,3.55-1.15,3.51-2.44,6.89-4.4,11.38-1.67-4.15-3.08-7.87-4.49-12.06-.51-1.63-.34-2.31,1.67-2.87.77-.21,1.03-.47,1.03-.94s-.34-.81-.94-.81c-1.28,0-2.61.13-4.36.13-1.88,0-3.25-.13-4.58-.13-.64,0-.94.39-.94.81,0,.51.26.77,1.03.98.98.26,1.28.6,1.88,2.14,2.35,5.86,4.45,11.03,7.18,18.05-1.84,3.38-3.21,4.15-5.05,4.49-1.5.26-2.48,1.2-2.48,2.4,0,.98.68,2.05,2.31,2.05h0ZM192.06,12.79c2.74,0,3.98,2.48,3.98,3.46,0,.34-.17.6-.56.68-2.31.6-5.09,1.15-8,1.67.51-3.89,2.44-5.82,4.58-5.82ZM192.36,32.04c3.72,0,6.29-1.84,7.83-3.68.68-.81.26-1.54-.43-1.54-.17,0-.34.09-.51.17-1.8,1.11-3.21,1.71-5.13,1.71-4.23,0-6.76-3.72-6.76-7.95v-.09c4.19-.6,8.3-1.41,12.53-2.4.56-.13.94-.56.81-1.2-.68-3.08-3.51-6.46-8.38-6.46s-9.37,4.53-9.37,11.08c0,6.16,3.98,10.35,9.41,10.35h0ZM172.39,31.69c1.41,0,2.91-.13,4.62-.13s3.29.13,4.71.13c.64,0,.94-.39.94-.81,0-.47-.3-.9-1.03-.98-1.92-.21-2.27-.43-2.27-1.33-.09-4.15-.09-8.04-.09-11.89,0-3.55,0-7.44.13-16.08,0-.56-.34-.69-.81-.56-2.01.5-4.05.86-6.12,1.07-.73.04-1.03.38-1.03.81,0,.47.3.81,1.11.94,1.88.34,2.1.56,2.14,1.54.09,4.32.09,8.38.09,12.27s0,7.74-.09,11.89c-.04.9-.3,1.07-2.22,1.33-.77.08-1.03.51-1.03.98,0,.43.3.81.94.81ZM162.73,12.79c2.74,0,3.98,2.48,3.98,3.46,0,.34-.17.6-.56.68-2.31.6-5.09,1.15-8,1.67.51-3.89,2.44-5.82,4.58-5.82h0ZM163.03,32.04c3.72,0,6.29-1.84,7.83-3.68.68-.81.26-1.54-.43-1.54-.17,0-.34.09-.51.17-1.8,1.11-3.21,1.71-5.13,1.71-4.23,0-6.76-3.72-6.76-7.95v-.09c4.19-.6,8.3-1.41,12.53-2.4.56-.13.94-.56.81-1.2-.68-3.08-3.51-6.46-8.38-6.46s-9.37,4.53-9.37,11.08c0,6.16,3.98,10.35,9.41,10.35h0ZM132.15,31.69c1.41,0,2.82-.13,4.53-.13s3.16.13,4.58.13c.64,0,.94-.39.94-.81,0-.47-.26-.81-1.03-.98-1.92-.3-2.14-.43-2.14-1.33-.04-1.37-.04-2.74-.04-4.06.94-.6,1.87-1.23,2.78-1.88,1.8,2.69,3.63,5.47,5.43,8.04.56.81.86.98,1.75.98,1.28,0,2.87-.04,4.7,0,.64,0,.98-.38.98-.85,0-.43-.17-.81-1.07-.9-1.2-.13-1.84-.73-2.87-2.05-1.8-2.44-3.68-5.22-5.43-7.91,0-.04.04-.04.09-.08,3.29-2.87,5.47-5.05,7.1-7.18.21-.3.34-.56.34-.81,0-.51-.34-.85-1.03-.81-2.01.17-3.85.17-6.12.04-.9-.04-1.15.39-1.15.81,0,.39.3.81.9.94l.85.21c1.41.34,1.41,1.5-.34,3.34-1.88,2.01-4.32,3.93-6.97,5.6v-5.3c0-3.55,0-7.44.13-16.08,0-.56-.34-.69-.81-.56-2.01.5-4.05.86-6.12,1.07-.73.04-1.03.38-1.03.81,0,.47.3.81,1.11.94,1.88.34,2.1.56,2.14,1.54.09,4.32.09,8.38.09,12.27s0,7.74-.09,11.89c-.04.9-.21,1.03-2.14,1.33-.77.17-1.03.51-1.03.98,0,.43.3.81.94.81ZM116.28,31.69c1.37,0,2.82-.13,4.49-.13s3.59.13,4.96.13c.6,0,.9-.39.9-.81,0-.47-.26-.85-1.11-.98-2.18-.26-2.39-.47-2.44-1.37-.09-2.35-.09-4.45-.09-7.18v-3.59c2.22-2.95,3.25-3.55,4.36-3.55,1.32,0,2.44,1.67,2.99,1.67.3,0,.47-.09.68-.51.43-.85.85-1.71,1.28-2.61.26-.56.13-.86-.38-1.2-1.03-.68-2.1-1.15-3.16-1.15-1.88,0-3.59,1.58-5.73,5.09,0-1.41.04-2.95.09-4.66,0-.56-.34-.68-.81-.56-2.22.6-4.32.94-6.12,1.07-.73.09-.98.38-.98.85s.26.81,1.07.94c1.88.34,2.1.56,2.14,1.5.09,2.14.09,4.41.09,6.72,0,2.74,0,4.83-.09,7.18-.04.9-.17,1.11-2.05,1.37-.77.17-1.03.51-1.03.98,0,.43.3.81.94.81h0ZM105.89,12.79c2.74,0,3.98,2.48,3.98,3.46,0,.34-.17.6-.56.68-2.31.6-5.09,1.15-8,1.67.51-3.89,2.44-5.82,4.58-5.82ZM106.19,32.04c3.72,0,6.29-1.84,7.83-3.68.68-.81.26-1.54-.43-1.54-.17,0-.34.09-.51.17-1.8,1.11-3.21,1.71-5.13,1.71-4.23,0-6.76-3.72-6.76-7.95v-.09c4.19-.6,8.3-1.41,12.53-2.4.56-.13.94-.56.81-1.2-.68-3.08-3.51-6.46-8.38-6.46s-9.37,4.53-9.37,11.08c0,6.16,3.98,10.35,9.41,10.35h0ZM80.1,29.34c-1.28-.3-1.71-.73-1.75-2.27-.09-3.25-.09-5.77-.09-10.39v-.08c7.27-.17,11.08,1.45,11.08,6.76,0,3.12-2.22,6.24-6.71,6.24-1.15,0-1.88-.09-2.52-.26ZM78.35,5.52c0-.86.21-1.2.86-1.45.51-.17,1.28-.26,2.48-.26,3.55,0,5.73,1.93,5.73,5.69,0,2.1-.68,3.85-1.8,5.18-2.18-.39-4.66-.51-7.36-.39,0-3.38,0-5.82.09-8.77ZM83.31,31.95c7.1,0,11.33-4.15,11.33-8.98,0-3.81-2.31-6.24-6.12-7.57,2.14-1.28,3.98-3.64,3.98-6.46,0-4.58-3.81-7.4-10.48-7.4-2.86,0-3.55.26-6.24.26s-4.49-.21-5.6-.21c-.68,0-1.03.38-1.03.94,0,.47.26.86,1.15,1.03,2.31.34,2.87.81,2.87,1.97.04,3.64.08,6.37.08,11.16s0,7.61-.08,11.25c-.04,1.24-.47,1.58-2.78,1.8-.9.13-1.15.56-1.15,1.03,0,.56.34.94,1.03.94,1.67,0,3.25-.08,5.52-.08,2.14,0,4.11.34,7.53.34ZM48.54,32.21c3.63,0,7.01-1.03,10.22-3.12.9-.56,1.15-1.15,1.15-1.75,0-1.16.08-2.22.04-3.17-.04-.73-.38-1.15-.98-1.15-.47,0-.81.3-.98.94-1.11,3.72-4.45,5.73-8.68,5.73-6.24,0-10.95-5.17-10.95-13s4.45-13.09,11.03-13.09c4.28,0,6.84,1.58,8.25,4.92.3.68.56,1.03,1.11,1.03.6,0,.85-.43.9-1.11.04-.98.04-2.52.04-3.46,0-.64-.21-1.15-1.15-1.67-2.27-1.24-5.43-2.14-8.81-2.14-10.01,0-16.85,6.89-16.85,16s6.42,15.05,15.65,15.05ZM16.04,32.21c7.4,0,12.27-4.58,12.27-12.66v-2.86c0-4.83,0-7.66.04-11.55.04-.9.47-1.28,2.82-1.5.81-.13,1.07-.56,1.07-1.03,0-.56-.34-.94-.99-.94-1.37,0-2.69.13-4.4.13s-3.12-.13-4.53-.13c-.64,0-.98.38-.98.94,0,.43.26.86,1.11.98,2.48.26,2.91.64,2.91,1.54.08,3.89.08,6.71.08,11.55v2.52c0,6.33-3.12,9.54-8.34,9.54s-8.12-3.33-8.12-9.24v-2.82c0-4.83,0-7.66.09-11.55,0-.9.43-1.28,2.78-1.5.86-.13,1.11-.56,1.11-1.03,0-.56-.34-.94-1.03-.94-1.62,0-3.25.13-5.47.13s-3.81-.13-5.47-.13c-.64,0-.98.38-.98.94,0,.47.26.9,1.11,1.03,2.35.21,2.78.6,2.78,1.5.09,3.89.09,6.71.09,11.55v3.38c0,8,4.62,12.15,12.06,12.15h0Z"/>
</svg>