<?xml version="1.0" encoding="UTF-8"?>
<svg id="Layer_1" xmlns="http://www.w3.org/2000/svg" version="1.1" viewBox="0 0 1077.94 481.14">
  <!-- Generator: Adobe Illustrator 30.4.0, SVG Export Plug-In . SVG Version: 2.1.4 Build 226)  -->
  <defs>
    <style>
      .st0 {
        fill-rule: evenodd;
      }

      .st0, .st1 {
        fill: #fff;
      }
    </style>
  </defs>
  <g>
    <path class="st0" d="M7.46,451.21c-.94-1.15-2-2.29-2.89-3.54-2.25-3.17-4.12-6.52-4.5-10.49-.27-2.75.23-5.59,4.17-7.59,8.66-4.42,17.86-7.33,27.25-9.71,2.86-.72,5.71-1.49,8.58-2.15,1.51-.34,3.09-.4,4.6-.74,2.95-.67,5.85-1.64,8.83-2.16,5.15-.9,10.33-1.6,15.52-2.3,5.11-.69,10.23-1.27,15.35-1.89,1.55-.19,3.09-.4,4.64-.53,2.95-.24,5.9-.39,8.84-.66,1.2-.11,2.38-.48,3.65-.74,0-1.55-.63-2.67-1.39-3.72-2.64-3.65-5.12-7.4-7.14-11.44-.46-.91-1.31-1.65-2.04-2.4-.74-.76-1.64-1.37-2.34-2.16-3.49-3.91-6.94-7.86-10.4-11.79-.7-.8-1.4-1.6-2.11-2.39-2.15-2.38-3.15-5.35-4.07-8.31-1.13-3.66-2.76-6.89-5.64-9.61-1.74-1.65-2.74-4.06-4.2-6.03-1.88-2.56-2.79-5.54-3.77-8.48-.74-2.21-1.81-4.16-3.75-5.54-1.34-.94-1.83-2.46-2.58-3.8-1.75-3.13-3.62-6.21-5.13-9.46-1.21-2.58-1.93-5.38-2.93-8.06-.6-1.62-1.17-3.2-1.37-4.96-.15-1.34-.76-2.69-1.42-3.9-.93-1.72-2.07-3.33-3.16-4.97-2.43-3.63-4.48-7.43-5.53-11.71-1.04-4.25-1.13-8.58-1.11-12.91.01-1.85.52-3.7.66-5.55.06-.86-.11-1.8-.4-2.62-1.9-5.43-3.32-10.97-3.78-16.73-.09-1.13.02-2.29.18-3.41.4-2.82.89-5.64,1.65-8.45-.2-.53-.27-1.16-.62-1.57-2.15-2.54-2.38-5.73-2.89-8.76-.63-3.78.08-7.47,1.63-10.98.53-1.2,1.29-2.32,1.6-3.57.27-1.06.15-2.26,0-3.37-.17-1.37-.67-2.71-.81-4.08-.26-2.56.03-5,1.3-7.37,1.36-2.55,1.99-5.36,1.7-8.32-.2-2.02.34-3.91,1.35-5.67.97-1.69,1.14-3.49,1.2-5.44.1-3.75.04-7.49-.08-11.23-.07-2.26,1.28-4.04,2.39-5.83,1.84-2.99,3.87-5.86,5.84-8.77.22-.33.54-.62.86-.84,1.16-.79,1.72-1.92,2.09-3.23.33-1.18.87-2.29,1.25-3.46,1.09-3.33,1.94-6.75,3.26-9.99,1.9-4.69,2.98-9.7,5.65-14.1,1.8-2.98,3.14-6.24,4.88-9.26,1.58-2.73,3.47-5.27,5.76-7.51,2.68-2.63,5.14-5.48,7.82-8.11,2.39-2.36,4.95-4.55,7.72-7.09,2.85-6.09,6.62-12.11,11.31-17.51,4.72-5.43,10.74-9.33,15.77-12.98,3.63-5.43,6.34-10.32,10.93-13.98,3.11-2.48,6.11-5.15,9.31-7.53,3.38-2.52,7.28-4.06,11.27-5.33.99-.32,2.11-.27,3.17-.37,1.86-.17,3.49-.65,4.66-2.34.58-.84,1.49-1.52,2.39-2.07,2.99-1.83,5.33-4.54,8.56-6.1,4.69-2.27,9.47-4.08,14.72-4.24,2.24-.07,3.94-.85,5.26-2.65,2.58-3.53,6.03-5.61,10.34-6.57,3.82-.85,7.52-2.24,11.3-3.28,4.1-1.13,8.21-2.23,12.36-3.17,1.75-.4,3.61-.37,5.32.47,3.63,1.79,7.08,1.04,10.7-.32,4.57-1.71,9.14-3.5,14.23-3.37,2.86.07,5.72.19,8.58.23,4.08.06,8.17-.35,12.26-.53,3.12-.14,6.19-.21,9.21,1.02,1.45.6,3.21.69,4.81.63,2.12-.08,4.05.39,6,1.07,1.39.48,2.85.74,4.25,1.18,2.7.84,5.36-.17,8.04-.15,4.23.03,8.46-.17,12.68-.08,1.43.03,2.85.65,4.27,1.02.39.1.77.43,1.15.42,2.74-.08,5.03,1.4,7.53,2.12,1.32.38,2.53,1.11,3.82,1.61,1.07.41,2.17.74,3.27,1.04,4.25,1.17,8.13,3.04,11.35,6.1.88.84,1.61,1.85,2.7,3.13,1.89.71,4.23,1.36,6.7,1.54,2.28.17,4.63.2,6.82.8,3.62.98,7.41,1.87,10.62,3.69,5.31,3.01,10.73,6.08,14.34,11.35.5.73,1.24,1.29,1.9,1.9,3.03,2.77,6.03,5.58,9.14,8.27.9.77,2.06,1.39,3.2,1.7,4.28,1.14,7.95,3.42,11.52,5.91.2.14.36.35.57.47,3.73,1.99,6.4,5.29,9.68,7.83.63.49,1.2,1.14,1.62,1.82,1.52,2.5,3.95,4.38,4.87,7.28.11.35.58.57.83.9.94,1.25,2.16,2.39,2.71,3.79,1.05,2.7,2.99,4.45,5.26,5.99.07.05.17.04.23.09,2.99,2.78,6.09,5.45,8.91,8.4,1.61,1.69,2.61,3.95,4.14,5.73,2.96,3.44,4.88,7.52,7.25,11.31,1.99,3.19,3.47,6.71,4.44,10.36.37,1.39,1.11,2.31,2.04,3.26,1.65,1.69,3.83,2.91,4.65,5.35,1.92.95,2.91,2.82,4.31,4.29,2.96,3.12,5.3,6.68,7.32,10.4,2.72,5.01,4.34,10.44,4.34,16.22,0,1.87-.25,3.75-.42,5.62-.17,1.91.23,3.43,1.87,4.75,3.89,3.14,6.19,7.24,7.21,12.21.61,2.97,1.3,5.87.95,8.91-.13,1.12-.34,2.24-.62,3.33-.33,1.27-.77,2.5-1.14,3.7,2.06,5.06,4.99,9.9,2.16,15.52,2.22,2.62,2.86,5.84,2.71,8.85-.13,2.59.55,4.98.59,7.47.06,3.6-.16,7.2-.25,10.8-.03,1.31-.03,2.63-.07,3.94-.13,4.77-.51,9.5-1.92,14.09-.18.6-.21,1.35-.04,1.95,1.08,3.77.48,7.52-.29,11.2-1,4.79-2.17,9.56-3.5,14.27-.94,3.37-2.05,6.73-3.46,9.92-1.48,3.32-3.94,5.99-6.89,8.1-.39,1.12-.23,2.1.23,3.13,2.14,4.73,1.32,9.29-1,13.69-.76,1.44-1.71,2.78-2.57,4.16-.17.28-.43.52-.55.81-1.9,4.51-3.8,9.02-5.65,13.55-.49,1.2-.74,2.49-1.21,3.69-1.32,3.39-3.05,6.53-6.04,8.78-1.24.93-2.41,1.98-3.73,2.76-1.23.72-1.8,1.77-2.37,3-1.79,3.85-3.05,7.95-5.46,11.51-2.06,3.05-4.07,6.13-6.03,9.25-.86,1.38-1.6,2.84-2.29,4.32-1.31,2.82-3.77,4.73-5.63,7.1-.67.85-1.81,1.36-2.8,1.92-1.58.91-2.49,2.27-3.09,3.95-1.05,2.92-2.06,5.85-3.62,8.58-1.33,2.32-2.16,4.92-3.33,7.68,1.04.2,1.88.42,2.74.51,3.01.33,6.04.57,9.05.93,3.32.39,6.66.78,9.95,1.35,5.08.89,10.16,1.82,15.19,2.94,5.2,1.16,10.36,2.53,15.51,3.9,4.9,1.31,9.73,2.93,14.67,4.05,2.98.68,5.72,1.89,8.57,2.87,1.08.37,2.17.72,3.25,1.11,5.31,1.9,10.63,3.79,15.92,5.75.88.33,1.64,1,2.31,1.42.98,5.11-.9,8.92-4.43,12.07-1.29,1.15-2.69,2.16-4.02,3.26-4.19,3.46-5.75,8.91-4.15,14.23.75,2.5,1.85,4.9,2.7,7.38.71,2.08,1.28,4.21,1.82,6.01-1.41,2.76-2.1,3.34-4.58,2.83-2.46-.51-4.91-1.29-7.18-2.35-4.08-1.89-7.98-4.14-12.03-6.09-1.75-.85-3.67-1.36-5.51-2.01-3.54-1.25-7.05-2.63-10.65-3.72-6.82-2.06-13.64-4.16-20.55-5.84-4.85-1.18-9.84-1.8-14.79-2.5-4.93-.7-9.87-1.32-14.83-1.74-3.65-.31-7.34-.22-11.01-.34-2.11-.07-4.22-.27-6.34-.28-1.86-.01-3.72.15-5.58.22-1.15.04-2.3.11-3.45.07-3.7-.14-7.36.24-11.04.56-3.74.33-7.51.34-11.27.55-1.71.09-3.42.28-5.13.47-3.83.41-7.66,1.01-11.5,1.23-7.16.41-14.09,2.3-21.17,3.19-3.16.4-6.24,1.37-9.37,2.01-2.5.5-5.01.93-7.53,1.31-1.93.3-3.74-.24-4.75-1.91-1-1.65-1.13-3.58,0-5.34,2.6-4.07,5.55-7.85,8.9-11.35,1.95-2.04,4.5-3.66,5.4-6.56-.15-1.7-.91-2.69-2.66-3.07-7.61-1.63-15.16-3.6-22.83-4.96-7.75-1.37-15.59-2.32-23.42-3.14-5.04-.53-10.14-.54-15.22-.72-5.41-.19-10.81-.32-16.22-.45-5.83-.14-11.61.4-17.37,1.26-4.37.65-8.78,1.04-13.13,1.76-7.2,1.19-14.27,3-21.24,5.17-2.25.7-4.39,1.78-6.8,2.78.4.78.58,1.41.97,1.87,2.8,3.32,5.66,6.59,8.46,9.92,1.9,2.26,3.73,4.58,4.51,7.51.04.16.04.33.08.62-.36,1.73-1.4,3.18-2.79,4.38-1.08.94-2.3,1.48-3.82,1.42-3.54-.15-7.03-.43-10.41-1.59-.73-.25-1.55-.24-2.33-.34-4.22-.57-8.44-1.18-12.67-1.71-3.9-.49-7.8-.93-11.7-1.32-3.9-.38-7.81-.74-11.72-.98-4.74-.29-9.49-.44-14.23-.66-2.61-.12-5.21-.26-7.82-.34-1.15-.04-2.29.04-3.44.06-1.88.03-3.76,0-5.63.08-1.37.07-2.74.43-4.11.44-3.19.02-6.39-.08-9.58-.16-5.58-.13-11.14.05-16.68.77-5.52.71-11.08,1.24-16.55,2.25-7.33,1.35-14.59,3.05-21.87,4.69-2.31.52-4.57,1.29-6.84,2-5.79,1.79-11.53,3.71-17.02,6.32-2.73,1.3-5.59,2.35-8.32,3.65-1.96.93-3.76.68-5.27-.64-2.49-2.17-3.92-4.84-4-8.34-.11-4.8,1.11-9.38,1.73-14.06.16-1.19.02-2.42.02-3.79ZM139.61,299.57c1.21.82,2.56,1.88,4.05,2.72,2.36,1.33,4.83,2.45,7.2,3.76.99.54,2.03,1.19,2.71,2.05,2.69,3.4,5.36,6.83,7.8,10.4,1.32,1.94,2.24,4.17,3.22,6.33.69,1.51,1.79,2.52,3.23,3.23,1.54.76,3.11,1.45,4.63,2.25,3.34,1.74,6.79,3.31,9.67,5.79,2.16,1.87,4.37,3.72,6.31,5.81,2.17,2.34,4.12,4.88,6.04,7.44,1.7,2.27,3.97,3.34,6.87,3.76.44-.44,1.08-.88,1.44-1.48,1.61-2.67,3.28-5.31,4.67-8.09,2.58-5.17,4.97-10.43,6.89-15.91,1.48-4.23,3.35-8.31,4.34-12.72.59-2.6,1.7-5.08,2.48-7.64,1.09-3.61,2.11-7.24,3.11-10.87,1-3.63,2.07-7.24,2.87-10.91,1.1-5.03,1.99-10.11,2.96-15.18,1-5.23,2.09-10.44,2.94-15.7.9-5.57,1.59-11.17,2.31-16.76.74-5.73,1.41-11.46,2.08-17.2.87-7.48,1.7-14.96,2.55-22.44.04-.33.07-.65.09-.98.2-3.27.39-6.54.62-9.81.05-.64.29-1.27.41-1.91.14-.72.32-1.45.34-2.18.13-4.51.28-9.01.3-13.52,0-1.98-.31-3.98-2.03-5.31-1.46-1.14-2.19-2.63-2.54-4.37-.8-4.02-2.2-7.76-4.43-11.26-1.84-2.89-3.54-5.92-4.3-9.33-1.38-6.15-.76-11.97,2.66-17.44.85-1.35,2.05-2.31,2.91-3.56,1.24-1.8,2.78-3.18,4.62-4.33,2.08-1.3,4.06-2.69,5.63-4.67,1.84-2.33,4.4-3.29,7.4-3.18,1.21.04,2.42-.18,3.82-.31.23-1.33.44-2.5.63-3.58-.7-1.73-1.31-3.42-2.04-5.06-1.87-4.2-1.77-8.52-.43-12.75,1.16-3.66,3.03-7.06,5.39-10.12.8-1.03,1.75-1.94,2.65-2.89.57-.6,1.25-.75,2.17-.26.1.53.32,1.16.32,1.79,0,2.65.94,4.9,2.35,7.12,1.12,1.76,2.26,3.79,2.47,5.79.45,4.42-.28,8.78-2.23,12.89-1.01,2.13-1.97,4.33-1.56,6.8.82.88,1.76,1.23,2.9,1.24,1.48.02,2.96.1,4.43.18,3.46.19,6.29,1.44,8.2,4.54.47.77,1.39,1.38,2.24,1.8,3.69,1.83,6.75,4.23,8.59,8.05.91,1.89,2.16,3.61,3.31,5.51.16,1.39.38,2.93.5,4.48.24,3.29-1.06,6.25-2.13,9.25-.38,1.06-.96,2.07-1.58,3.02-1.97,3.01-4.01,5.98-5.98,8.99-.3.46-.43,1.06-.49,1.62-.12,1.14-.06,2.31-.21,3.44-.14,1.03-.21,2.22-.77,3.01-1.87,2.65-2.23,5.58-2.16,8.67.02.82-.07,1.64-.16,2.46-.7,5.94-.45,11.91-.48,17.86-.04,7.05.35,14.1.53,21.15.05,2.01-.1,4.03.02,6.03.3,5.3.69,10.6,1.04,15.9.35,5.23.69,10.47,1.05,15.7.11,1.63.26,3.26.42,4.88.34,3.42.67,6.85,1.06,10.27.48,4.14.96,8.29,1.55,12.42.49,3.48,1.06,6.95,1.72,10.4.79,4.18,1.7,8.33,2.57,12.49,1.04,4.96,1.73,10.03,3.22,14.86,2.48,8.06,4.62,16.23,7.67,24.12,1.69,4.37,3.68,8.57,6.04,12.6.33.57.97.96,1.38,1.35,3.72-2.23,7.12-4.35,10.62-6.33,1.77-1,3.69-1.74,5.55-2.58,2.53-1.16,5.02-2.27,7.89-2.57,2.11-.23,4.39-.91,5.38-3.31.09-.21.35-.34.53-.51,2.16-2.11,4.33-4.22,6.48-6.34,5.4-5.31,11.16-10.11,18.25-13.05,1.39-.58,2.46-1.56,3.22-2.9,1.04-1.84,2.13-3.65,3.27-5.43,2.18-3.4,4.9-6.34,7.86-9.06,1.81-1.66,3.74-3.19,5.55-4.86.96-.89,1.63-1.9,1.65-3.41.02-2.28.28-4.58.65-6.84.99-6.03,4.33-10.69,8.84-14.6,1.04-.9,1.79-1.88,1.99-3.26.24-1.62.65-3.24.7-4.87.09-3.03,1.43-5.51,3.69-7.2,1.7-1.28,2.21-2.69,2.19-4.56-.01-1.23-.07-2.46-.13-3.69-.09-1.79-.2-3.58-.26-4.7,1.09-2.49,1.82-4.39,2.75-6.18.57-1.1.51-2.18.48-3.33-.05-1.8-.06-3.6-.06-5.4,0-.9.21-1.81.08-2.68-.3-2.07.16-3.95,1.29-5.64.83-1.25,1.12-2.52.86-4-2.7-2.89-2.84-6.36-2.56-10.12.28-3.8,1.91-6.88,4.26-9.93-.9-1.65-1.74-3.22-2.61-4.78-1.39-2.49-3.01-4.88-4.13-7.49-1.12-2.62-1.71-5.47-2.6-8.19-1.99-6.05-3.01-12.24-2.78-18.62.06-1.65-.19-3.24-1.15-4.65-.91-1.35-1.84-2.69-2.65-4.1-1.1-1.91-2.06-3.89-3.14-5.81-2.01-3.59-3.57-7.35-4.29-11.42-.26-1.5-.92-2.44-2.55-2.86-3.24-.85-6.37-2-9.22-3.85-3.74-2.44-7.57-4.73-11.32-7.16-1.42-.92-2.98-1.82-4.03-3.09-3.17-3.84-6.1-7.87-9.16-11.8-1.34-1.73-2.76-3.41-4.13-5.09-2.13-.52-4.18-1.08-6.26-1.51-4.98-1.03-9.4-3.39-13.57-6.11-3.38-2.2-6.96-3.79-9.83-4.85-2.37-1.79-4.04-3.05-5.71-4.33-1.74-1.33-3.47-2.68-5.21-4.01-.7-.54-1.36-1.22-2.15-1.53-2.81-1.09-5.62-2.2-8.66-2.61-1.94-.26-3.98-.54-5.72-1.35-2.08-.96-4.2-1.33-6.4-1.52-3.25-.28-6.5-.3-9.74-.79-3.13-.47-6.33-.19-9.52.19-3.47.42-7.07.94-10.07-1.22-4.22-.4-8.03.71-11.82,1.72-5.33,1.41-10.61,2.78-16.2,2.75-2.14-.01-4.48.12-6.28,1.7-5.5,4.84-12.03,7.87-18.72,10.57-3.81,1.53-7.86,2.31-11.93,2.91-2.41.36-4.57,1.08-5.95,3.39-1.08,1.81-2.4,3.48-3.67,5.18-3.2,4.27-7.52,7.27-11.99,9.98-2.64,1.6-5.57,2.77-8.47,3.86-1.82.68-2.99,1.81-4.02,3.36-2.62,3.93-4.3,8.39-7.33,12.12-3.3,4.05-6.14,8.45-10.42,11.61-1.28.94-2.01,2.29-2.51,3.82-1.58,4.87-2.41,9.99-5.29,14.43-2.31,3.56-4.23,7.36-6.37,11.03-1.33,2.27-2.5,4.41-2.15,7.33.27,2.27-.52,4.68-.89,7.02-.07.46-.38.9-.62,1.33-1.28,2.27-2.57,4.54-3.74,6.59,0,1.8-.08,3.36.02,4.92.22,3.51.32,7.09-.95,10.35-.88,2.24-.56,4.07.03,6.16,1.51,5.4,1.31,10.68-1.69,15.76-.01,1.69.82,3.21,1.57,4.76.5,1.02,1.03,2.03,1.53,3.06.43.88.77,1.8,1.26,2.64,1.33,2.27,1.81,4.81,1.88,7.33.09,3.16-.32,6.33-.53,9.92,2.22,3.29,4.58,6.95,5.61,11.22,1.04,4.29,2,8.61,1.48,12.99,1.3,1.47,2.55,2.78,3.68,4.18,1.55,1.91,2.95,3.94,4.53,5.83,1.93,2.29,3.37,4.81,4.07,7.73.44,1.83.89,3.66,1.41,5.8ZM134.11,410.6c.48.85.68,1.41,1.06,1.82,2.61,2.83,5.16,5.73,7.92,8.41,2.62,2.55,5.57,4.76,8.18,7.33,1.81,1.79,3.59,3.57,5.61,5.15,1.83,1.43,3.76,1.44,5.5.4,1.45-.87,2.97-1.31,4.51-1.82,3.42-1.13,6.81-2.35,10.23-3.5,3.5-1.17,7-2.31,10.51-3.45,1.7-.55,3.41-1.09,5.14-1.56,1.74-.47,3.51-.83,5.26-1.29,2.78-.72,5.51-1.67,8.32-2.2,8.62-1.62,17.14-3.8,25.91-4.62,3.74-.35,7.47-.93,11.22-1.09,5.74-.25,11.48-.32,17.23-.29,4.27.02,8.54.21,12.8.49,5.88.39,11.77.8,17.62,1.47,4.56.52,9.08,1.39,13.59,2.24,3.78.71,7.55,1.52,11.28,2.48,6.19,1.59,12.34,3.34,18.23,5.87,4.89,2.1,9.79,4.2,14.65,6.37,1.71.76,3.31,1.75,4.82,2.55,4.22-1.94,7.64-4.62,11.09-7.25,3.65-2.78,7.3-5.56,10.89-8.41,2.73-2.17,5.66-4.17,7.52-7.24-.2-1.21-.94-1.97-1.94-2.43-1.78-.82-3.6-1.55-5.4-2.33-2.48-1.07-4.92-2.21-7.43-3.21-4.57-1.81-9.08-3.83-13.77-5.25-7.37-2.23-14.86-4.1-22.33-6-4.76-1.21-9.57-2.18-14.36-3.25-.48-.11-.97-.19-1.46-.25-6.92-.83-13.84-1.66-20.76-2.48-2.85-.34-5.69-.82-8.55-.96-5.74-.3-11.48-.42-17.22-.6-1.56-.05-3.12,0-4.68-.06-2.7-.1-5.4-.35-8.1-.35-5.42,0-10.83.11-16.25.21-3.11.06-6.23.1-9.33.34-4.16.31-8.29.83-12.45,1.2-3.74.33-7.53.3-11.23.89-6.46,1.04-12.98,1.76-19.34,3.41-4.04,1.05-8.19,1.72-12.22,2.79-4.44,1.18-8.8,2.63-13.19,3.97-1.25.38-2.54.71-3.75,1.2-6.75,2.75-13.63,5.2-20.13,8.55-1.65.85-3.28,1.75-5.17,2.75ZM15.42,460.74c1.05,2.01,1.05,2.03,3,1.65,1.04-.2,2.09-.42,3.1-.75,2.18-.7,4.31-1.56,6.52-2.18,4.25-1.19,8.53-2.28,12.81-3.37,2.38-.61,4.76-1.23,7.17-1.71,2.32-.46,4.68-.74,7.02-1.14,1.45-.24,2.89-.61,4.35-.81,3.32-.45,6.66-.81,9.98-1.26,2.42-.32,4.83-.71,7.25-1.08,2.25-.34,4.5-.77,6.76-1.02,4.22-.48,8.44-.9,12.67-1.28,2.85-.26,5.7-.5,8.55-.57,3.67-.09,7.35.02,11.02-.01,2.46-.02,4.93-.16,7.39-.19,3.86-.06,7.72-.14,11.58-.09,5.81.07,11.61.15,17.39,1,4.7.69,9.45,1.1,14.18,1.63.91.1,1.83.15,2.97-.34-.67-.48-1.05-.79-1.45-1.04-1.87-1.17-3.82-2.23-5.59-3.52-2.78-2.03-5.35-4.35-8.17-6.32-4.15-2.9-7.81-6.38-11.58-9.72-2.39-2.12-4.61-4.42-6.86-6.69-2.02-2.04-3.97-4.16-5.94-6.24-1.21-1.28-2.71-1.83-4.43-1.8-1.87.03-3.75.17-5.62.16-2.71,0-5.41-.2-8.11-.13-3.6.1-7.19.32-10.79.58-4.82.35-9.63.74-14.44,1.18-3.83.35-7.66.78-11.48,1.23-3.5.42-7,.84-10.48,1.42-4.04.67-8.06,1.5-12.08,2.28-2.9.56-5.81,1.04-8.68,1.75-3.34.82-6.64,1.81-9.94,2.79-4.16,1.23-8.31,2.47-12.43,3.79-2.71.87-5.4,1.84-8.04,2.9-1.63.65-3.55.9-4.53,2.66.06,1.9.18,2.75,1.06,3.39,2.45,1.76,3.91,4.4,5.98,6.47,2.4,2.39,2.6,5.25,2.06,8.22-.5,2.72-1.4,5.36-2.16,8.17ZM509.66,438.82c-.28-.29-.73-.75-1.17-1.21-1.25-1.34-3.02-1.55-4.62-2.13-2.68-.97-5.38-1.92-8.1-2.79-3.1-.99-6.24-1.88-9.35-2.84-3.51-1.08-6.97-2.34-10.51-3.27-6.32-1.66-12.69-3.13-19.05-4.67-3.18-.77-6.35-1.54-9.54-2.25-1.03-.23-2.21-.01-3.16-.4-3.32-1.35-6.9-1.26-10.33-2.06-5.39-1.27-10.93-1.86-16.49-2.11-5.96-.27-11.9-.84-17.88-1.01-3.52-.1-6.38.79-9.21,2.52-1.67,1.02-3.29,2.22-5.08,2.96-2.14.88-3.97,2.16-5.77,3.53-1.17.89-2.18,1.97-3.34,2.86-4.02,3.1-8.09,6.14-12.11,9.24-2.47,1.9-5.01,3.74-7.27,5.87-1.76,1.66-3.66,3.01-5.78,4.12-1.66.87-3.31,1.76-4.94,2.69-.75.43-1.44,1-2.44,1.7.82.3,1.27.42,1.67.63.43.21.83.5,1.21.74,2.04-1.33,2.07-1.16,4.6-1.58,2.92-.49,5.84-.67,8.79-.8,3.6-.15,7.19-.58,10.79-.85,2.45-.18,4.91-.3,7.37-.43,3.59-.19,7.19-.42,10.79-.52,2.95-.08,5.91.03,8.87.04,3.5.02,7.01-.07,10.51.08,4.96.21,9.91.51,14.86.95,3.92.35,7.81.96,11.71,1.48,1.14.15,2.26.45,3.4.6,3.17.4,6.38.59,9.51,1.16,4.92.89,9.79,2.02,14.68,3.07,1.27.27,2.53.62,3.78.99,2.91.85,5.78,1.82,8.71,2.59,6.88,1.83,13.71,3.81,20.22,6.76,1.24.56,2.57.94,3.62,1.32,1.43-.73,1.28-1.71,1.22-2.72-.17-3.1-.29-6.21-.42-9.32-.14-3.31,1.23-5.82,3.92-7.74,1.74-1.24,3.34-2.66,5.02-3.99.96-.76,1.64-1.62,1.34-3.22ZM54.98,243.51c.19,1.57,1.3,2.1,2.51,2.39,3.03.72,6.05,1.58,9.12,1.99,5.92.79,11.88,1.32,17.83,1.95,3.59.38,7.18.8,10.77,1.06,3.76.27,7.53.43,11.29.51,1.61.04,3.23-.23,4.87-.36.62-1.22,1.33-2.19,1.62-3.26,1.12-4.17,1.25-8.47.45-12.65-.41-2.14-2.01-4.04-3.28-6.44.05-.28.06-1.03.3-1.7.69-1.94,1.04-3.84,1.01-5.98-.05-3.53-.2-6.97-1.22-10.37-.43-1.41-1-2.39-2.54-2.64-1.24.31-2.53.57-3.78.97-5.13,1.63-10.4,2.06-15.74,1.88-6.55-.22-13.1-.39-19.65-.68-3.6-.16-7.18-.41-10.7-1.39-7.06-1.97-14.17-3.75-21.27-5.57-.59-.15-1.26-.02-1.89-.02-.64,1.61-1.2,3.05-1.75,4.45.21.7.41,1.33.58,1.97.71,2.72,2.29,4.43,5.21,4.8,1.04.13,2.05.55,3.04.93,3.89,1.52,7.75,3.1,11.65,4.6,1.92.73,3.24,2.07,4.41,3.66-1.54,1.17-2,1.37-3.42.81-2.44-.95-4.82-2.05-7.21-3.11-1.41-.63-2.77-1.38-4.21-1.92-1.61-.61-3.29-1.03-4.93-1.55-2.51-.8-4.56-.24-6.01,1.95-1.89,2.86-2.66,6.1-2.68,9.5-.01,2.34.33,4.59,2.61,6.4,3.87,1.11,8.06,2.57,12.4,2.7,6.96.2,13.93.76,20.9.25.92-.07,1.9-.27,3.09.38-2.24,1.79-4.87.6-6.97,1.73-2.05,1.11-4.63,1.09-6.41,2.78ZM397.52,295.18c.59,1.23.79,2.21,1.38,2.8,2.31,2.28,3.1,5.57,5.43,7.83,1.23,1.18,2.26,2.58,3.28,3.95,3.18,4.31,6.75,8.26,10.72,11.83,3.3,2.96,6.63,5.9,10.08,8.67,5.8,4.67,11.41,9.55,17.97,13.26,3.34,1.89,6.8,2.62,10.31,3.28,2.86-.95,4.21-3.31,5.37-5.58,1.74-3.41,3.27-6.96,4.48-10.58,1.01-3.03,2.16-5.95,3.66-8.76.72-1.35,1.17-2.83,1.66-4.04-.89-1.55-1.94-2.22-3.34-2.44-4.84-.75-9.69-1.42-14.51-2.32-1.64-.31-3.36-.95-4.72-1.89-2.46-1.7-4.95-3.42-6.86-5.8-.69-.86-1.04-1.79-.85-2.99,1.5-.31,2.64.4,3.8.95,3.02,1.44,5.96,3.11,9.39,3.42.4.04.79.23,1.17.37,3.3,1.21,6.56,2.54,9.91,3.59,2.34.73,4.79.76,7.3-.05.15-1.26.28-2.38.41-3.46-.55-.85-1.03-1.6-1.64-2.56-1.34-.24-2.77-.52-4.21-.75-3.64-.59-7.34-.89-10.87-2.09-2.09-.71-4.21-1.32-6.27-2.09-2.76-1.03-5.53-2.03-8.19-3.28-2.35-1.11-4.44-2.62-6.28-4.56-1.83-1.94-3.89-3.77-6.15-5.17-1.61-1-3.23-1.9-4.56-3.26-2.6-2.67-5.27-5.28-7.79-8.03-1.66-1.8-3.09-3.81-4.63-5.73-1.33-1.65-2.56-3.39-4.01-4.92-.98-1.04-2.21-1.94-3.84-1.38-.61,1.96.1,3.5,1.06,4.98,1.33,2.05,2.68,4.1,4.03,6.14.22.34.51.64.78.95,1.65,1.91,3.3,3.82,4.94,5.74,2.18,2.54,4.38,5.07,6.52,7.64.28.33.24.93.44,1.79-3.19-.7-5.76-1.63-7.83-3.62-1.53-1.46-2.89-3.11-4.5-4.46-2.19-1.83-3.84-4.25-6.34-5.73-.27-.16-.54-.41-.69-.69-.77-1.47-2.25-2.11-3.49-3.03-1.24-.92-2.44-.79-3.62.09-1.7,1.28-2.93,2.85-3.07,4.94.32,1.24.59,2.35.9,3.46.83,3.07,2.17,5.83,4.76,7.84.64.5,1.29,1.03,1.81,1.65,1.54,1.79,3.05,3.62,4.52,5.47.65.81,1.18,1.71,1.68,2.45-.39,1.38-1.13,1.86-2.38,1.71-2.61-1.16-3.34-4.85-7.13-5.51ZM411,236.21c-.2.3-.41.56-.57.85-1.76,3.18-3.45,6.38-2.92,10.22.47,3.42,2.05,5.92,5.43,7.2,2.14.8,4.23,1.78,6.24,2.87,3.78,2.05,7.77,3.55,11.94,4.41,4.09.84,8.24,1.54,12.39,1.86,4.14.31,8.32.07,12.48.06.06,0,.13-.07.46-.25-1.64-1.09-3.12-2.24-4.74-3.12-3.24-1.76-6.58-3.33-9.85-5.05-.82-.43-1.51-1.11-2.37-1.76.5-.6.79-.96,1.1-1.34,1.06.16,2.12.09,2.98.48,4.25,1.89,8.71,3.2,12.91,5.26,3.26,1.61,6.92,2.42,10.42,3.51.68.21,1.47.16,2.19.1,3.96-.36,7.79-1.3,11.34-3.06,1.95-.97,3.77-2.28,5.48-3.65,1.21-.97,2.18-2.25,2.08-4.01-.02-.37.28-.75.38-1.15.3-1.09.76-2.17.82-3.28.09-1.88-.07-3.77-.14-5.65-.1-2.65-.52-5.29-.18-7.97.14-1.14-.3-2.35-.44-3.23-1.28-.96-2.3-1.02-3.33-.45-1.65.91-3.28,1.86-4.93,2.76-2.43,1.32-4.67,3.03-7.46,3.6-1.28.26-2.57.46-3.83.79-3.09.82-6.13,1.87-9.25,2.51-2.63.55-5.35.69-8.04.96-1.01.1-1.94-.15-2.48-1.05.22-1.27.98-1.8,2.02-2.03.72-.16,1.44-.32,2.17-.42,2.68-.38,5.32-.85,7.58-2.56.62-.47,1.5-.69,2.29-.85,3.46-.72,6.83-1.68,10.03-3.24,1.02-.5,2.15-.77,3.25-1.07,4.11-1.14,7.52-3.53,10.86-6.04.25-.19.4-.51.6-.78v-4.42c-1.34-1.27-2.55-1.18-3.8-.43-.85.5-1.74.95-2.52,1.54-2.32,1.78-4.97,2.94-7.73,3.7-8.92,2.45-17.86,4.76-27.25,4.69-6.17-.04-12.25-.51-18.29-1.79-3.92-.83-7.88-1.55-11.85-2.1-2.24-.31-4.56-.35-6.85.7-.29,3.66-.29,7.22,1.6,10.41-.08.86-.15,1.59-.21,2.3ZM275.36,342.95c.55-2.39.37-4.33-.08-6.26-.68-2.93-1.48-5.83-2.07-8.77-.77-3.83-1.37-7.7-2.08-11.54-.84-4.5-1.87-8.97-2.56-13.5-.77-5.06-1.25-10.16-1.83-15.25-.28-2.42-.5-4.85-.73-7.28-.25-2.59-.66-5.18-.68-7.77-.05-5.23-.85-10.39-.87-15.63-.03-6.79-.71-13.58-1.02-20.37-.17-3.75-.11-7.51-.21-11.26-.08-3.27-.3-6.54-.34-9.81-.06-4.56,0-9.11-.02-13.67,0-3.67-.2-7.35,0-11.02.11-2.12.49-4.24-.1-6.31-.45-1.55-1.24-3-.57-4.67-.32-.02-.45-.06-.48-.03-1.18,1.67-1.94,3.49-2,5.56-.06,2.28-.23,4.57-.06,6.83.14,1.82-.33,3.54-.43,5.31-.24,4.23-.71,8.44-.62,12.68,0,.31-.11.63-.14.94-.52,5.54-1.06,11.07-1.55,16.62-.44,4.98-.75,9.98-1.24,14.96-.69,6.99-1.48,13.97-2.23,20.96-.16,1.46-.36,2.92-.54,4.37-.33,2.68-.66,5.36-1,8.04-.18,1.45-.37,2.89-.56,4.33-.06.49-.13.97-.22,1.45-.85,4.57-1.72,9.14-2.56,13.71-.71,3.86-1.33,7.73-2.1,11.57-.73,3.67-1.59,7.31-2.43,10.96-.89,3.91-1.76,7.82-2.74,11.71-.77,3.08-1.74,6.12-2.51,9.21-.2.81-.03,1.71-.03,2.89,1.08-.17,1.97-.17,2.77-.46,2.92-1.04,5.81-.87,8.67.15,1.69.6,3.32,1.36,4.99,2.02,1.35.53,2.65.45,4.07.02,2.42-.74,4.91-1.29,7.39-1.78.85-.17,1.79.02,2.68.15,1.93.28,3.86.62,6,.96ZM110.32,259.08c-.9.5-1.72.84-2.41,1.35-.85.63-1.53,1.5-2.4,2.11-2.7,1.88-5.08,4.08-7.42,6.39-4.56,4.48-9.75,8.21-15.09,11.72-4.68,3.08-9.71,5.48-15.1,7.09-1.49.44-2.99.82-4.49,1.24-3.69,1.04-7.36,2.2-11.09,3.1-2.93.71-5.88,1.37-8.95,1.48-1.79.06-3.54.95-5.29,1.45.5,2.24,2.17,4.09,4.18,4.61,2.63.68,5.36.64,8,.26,3.83-.54,7.41-2.06,11.01-3.45,2.2-.85,4.41-1.52,6.43-2.92,2.25-1.56,4.92-2.5,7.41-3.72.77-.38,1.53-.69,2.38.45-.45.53-.85,1.2-1.42,1.65-1.54,1.21-3.14,2.34-4.74,3.49-.33.24-.7.43-1.08.59-2.39,1.06-4.74,2.2-7.17,3.15-3.97,1.55-7.97,3.07-12.02,4.39-1.58.51-3.03,1.11-4.48,2.16.07.96.09,1.93.22,2.88.14.97.38,1.93.59,2.89.68,3.03,1.17,6.12,2.12,9.05.99,3.06,2.84,5.66,5.81,7.62,2.77-.73,5.63-1.43,8.47-2.23,3.19-.89,5.89-2.8,8.69-4.47,3.59-2.13,7.12-4.37,10.68-6.56,1.88-1.16,4.04-2.02,5.6-3.51,2.28-2.16,4.89-3.82,7.27-5.8,4.84-4.01,9.85-7.89,13.13-13.48,1.27-2.15,2.96-4.05,4.43-6.09.18-.25.18-.62.38-1.33-3.15,3.03-5.9,5.8-8.79,8.41-1.45,1.3-3.14,2.33-4.77,3.42-.62.42-1.36.63-2.19-.33,1.69-3.18,4.68-5.44,6.73-8.42,2.08-3.04,4.39-5.92,6.4-9.01,1.99-3.06,3.72-6.28,5.56-9.41,1.02-.21,2.02-.42,2.93-.6.86-4.76-.75-7.8-4.27-7.84-.39,1.75-.8,3.56-1.26,5.63-.84.62-2.16,1.19-2.87,2.2-1.93,2.76-4.36,4.88-7.17,6.63-.41.26-.74.66-1.14.94-1.64,1.17-3.3,2.32-5.02,3.52-.83-.51-1.49-.92-2.12-1.31.28-1.62,1.25-2.52,2.19-3.42,4.29-4.08,7.89-8.77,11.64-13.33.49-.59,1.07-1.28.48-2.66ZM282.57,9.07c-5.3-1.13-10.23-1.93-15-3.29-3.41-.98-6.58-.96-9.82.28-3.29,1.26-6.71,1.78-10.16,1.21-2.16-.36-4.25-.15-6.36-.05-2.39.11-3.89,1.67-4.75,3.88-1.18,3.03-.9,6.18-.84,9.25.05,2.58.78,5.15,1.31,7.71.25,1.19.77,2.32,1.14,3.48.63,1.93,1.16,3.89,1.88,5.78.79,2.06,1.74,4.07,2.64,6.09,1.53,3.43,2.93,6.93,4.65,10.27,2.16,4.2,5.97,6.84,9.72,9.45.61.43,1.55.49,2.35.53,1.63.08,3.27.02,5.04.02,6.41-3.83,10.11-10.22,14-16.42,1.12-1.78,1.78-3.84,2.62-5.72-.13-.82-.25-1.54-.36-2.27,1.04-2.27,2.86-4.33,1.78-7.32.36-.24.76-.51.82-.55,1.25-6.68,3.76-12.9,1.92-19.79-.81-.79-1.85-1.81-2.59-2.54ZM410.11,213.94c1.28,1.34,2.52,2.51,4.39,3.04,1.95.55,3.9,1.13,5.7,2.19,1.82,1.07,3.93,1.5,6.07,1.77,5.92.74,11.89.83,17.8,1.75,2.55.4,5.21.08,7.82.07,3.78-.01,7.52-.51,11.16-1.45,3.23-.84,6.33-2.21,9.54-3.13,4.89-1.41,9.15-3.89,13.02-7.13,1.94-1.62,2.56-3.55,1.68-5.9-.23-.61-.55-1.18-.94-1.99-1.21.14-2.4.28-3.59.42-2.5,1.81-5.05,3.43-7.77,4.71-2.89,1.36-5.86,2.59-8.91,3.51-3.67,1.1-7.54,1.52-11.13,2.96-.98.4-2.02.66-3.04.95-3.4.98-6.82.86-10.2-.04-.81-.22-1.53-.8-2.12-1.13-.16-1.35.49-1.6,1.29-1.7,1.46-.17,2.96-.18,4.37-.54,3.41-.86,6.77-1.88,10.16-2.84,4.39-1.24,8.81-2.37,13-4.23.67-.3,1.33-.65,2.04-.84,4.29-1.14,7.82-3.67,11.39-6.15,1.23-.86,1.96-1.93,1.46-3.47.43-.61.81-1.14,1.23-1.73.34-4.28-.42-8.47-1.64-12.57-.91-3.08-3.89-3.72-6.37-1.65-3.01,2.52-6.07,4.98-9.18,7.38-2.78,2.15-5.62,4.24-8.5,6.24-4.83,3.36-9.39,7.1-14.79,9.65-4.84,2.28-9.88,3.96-14.98,5.4-3.29.93-6.77,1.15-10.17,1.65-1.78.26-3.59.37-5.36.68-2.91.52-3.04.73-3.42,4.1ZM41.36,165.5c-.43.74-1.03,1.63-1.48,2.58-1.51,3.17-1.92,6.56-1.84,10.02.1,4.08,2.21,7.14,5.74,8.77,5.56,2.56,11.35,4.59,17.4,5.76,1.12.22,2.23.55,3.28,1,1.52.65,1.6,1.08.78,2.82-2.19.43-4.22-.05-6.21-.95-.88-.4-1.84-.71-2.79-.86-4.2-.7-8.41-1.33-12.34-3.09-.89-.4-1.84-.68-2.8-.87-2.26-.44-3.66.36-4.42,2.49-.25.69-.38,1.42-.54,2.05.65,1.8,1.14,2.62,2.18,3.29,1.99,1.28,3.9,2.63,6.36,3.05,1.76.29,3.47.96,5.15,1.61,4.88,1.89,9.94,2.48,15.13,2.38.89-.02,1.79.14,2.69.24,3.66.4,7.32.83,10.99,1.18.8.08,1.63-.14,2.44-.21.9-.08,1.81-.32,2.68-.2,2.92.4,5.81.52,8.77.44,4.35-.11,8.42-1.19,12.48-2.45,1.22-.38,2.36-1.12,3.43-1.85.44-.3.6-1.02,1.06-1.87-1.25-.34-2.18-.5-3.03-.85-3.48-1.41-6.96-2.8-10.38-4.34-3.36-1.51-6.66-3.14-9.95-4.79-3.8-1.91-7.59-3.85-11.33-5.87-2.23-1.2-4.33-2.63-6.54-3.89-2.42-1.39-4.59-3.08-6.66-4.94-2.12-1.92-4.27-3.83-6.58-5.49-2.46-1.76-5.21-3.1-7.68-4.84-1.84-1.29-3.58-1.46-5.99-.3ZM122.12,112.42c.17.04.35.08.52.13.12.7.31,1.41.35,2.11.16,3.11.26,6.23.41,9.35.11,2.32.85,4.43,1.92,6.49,1.53,2.94,4.06,2.7,6.08,1.8,2.32-1.04,4.44-2.48,6.24-4.33,1.37-1.41,2.83-2.73,4.14-4.19,1.07-1.19,2.08-2.48,2.94-3.83.61-.95.92-2.09,1.39-3.14.7-1.57,1.47-3.1,2.1-4.7.39-.99.7-2.07-.78-3.03-2.98,1.23-6.13,2.53-9.38,3.87-.57-.36-1.1-.69-1.66-1.04,0-1-.11-1.92.02-2.8.41-2.66.87-5.31,1.4-7.95.59-2.92-.05-6.12,2.33-8.97,3.61-1.5,7.78-2.85,11.1-5.81,2.9-2.59,6.24-8.33,6.37-11.29-.81.11-1.63.07-2.3.36-1.04.45-2.02,1.09-2.97,1.73-2.04,1.38-4.19,2.54-6.53,3.33-1.02.35-1.9.44-2.6-.61-.03-1.31.69-2.31,1.43-3.29,1.97-2.61,3.97-5.21,5.92-7.84.35-.47.53-1.06.84-1.71-2.62-.82-4.66.1-6.62,1.08-2.5,1.25-4.62,3.02-6.66,4.96-4.47,4.26-8.47,8.81-10.63,14.73-.47,1.29-.8,2.48-.32,3.73,1.06,1.3,2.49,1.68,3.98,1.79,1.53.11,3.08.03,4.6.03.15.49.24.8.4,1.31-.71.58-1.44,1.22-2.21,1.81-2.38,1.86-4.93,3.54-6.52,6.23-.95,1.62-1.92,3.23-2.93,4.81-.29.45-.74.79-1.2,1.28-.6-.51-1.06-.91-1.76-1.5-.97.35-2.11.58-3.05,1.14-1.33.8-2.49,1.87-3.75,2.77-1.4,1-2.78,2.06-4.29,2.87-1.02.54-2.16,1.22-3.55.64-.5-2.94.48-5.53,1.56-8.09.6-1.42,1.38-2.76,2.02-4.16.37-.81.31-1.6-.69-2.26-3.91.06-7.23,1.39-9.21,5.16-.87,1.66-1.52,3.46-2.58,4.97-.84,1.21-1.27,2.46-1.53,3.83-.68,3.53-.89,7.1-.94,10.69-.01,1.06-.09,2.13.03,3.17.3,2.53,1.35,3.22,3.83,2.75,3.42-.66,6.53-2.1,9.61-3.63,3.75-1.86,6.85-4.44,8.97-8.14,1.3-2.27,2.77-4.43,4.16-6.64ZM391.78,63.05c-.34.39-.46.63-.66.74-.28.15-.6.27-.91.3-3.73.3-7.35-.22-10.89-1.42-2.47-.84-4.97-1.6-7.23-2.32-.9.42-1.51.67-2.08.99-1.09.6-2.26.64-3.34.21-1.19-.48-2.38-1.07-3.39-1.85-2.25-1.74-4.41-3.6-6.54-5.49-1.08-.95-2.04-2.06-3.18-3.22-1.43-1.05-3.03-2.23-4.61-3.39-6.59-1.36-8.17-1.43-9.84-.53,1.85,1.41,3.66,2.94,5.61,4.24,2.05,1.37,3.37,3.31,4.65,5.3.5.77.75,1.68-.2,2.44-3.41.05-6.8-.11-10.13-.99-1.62-.43-3.15-.25-4.93.61.73.69,1.16,1.16,1.66,1.54,2.93,2.27,6.37,3.65,9.67,5.24,2.65,1.27,5.6,2.02,8.1,3.52,4.26,2.54,8.84,3.68,13.67,4.07,2.63.21,5.16-.32,7.37-1.54.17-1.23.3-2.18.44-3.22,3.69.35,6.83,1.82,9.84,3.42,5.16,2.74,10.69,4.52,16.2,6.28,3.95,1.27,8.08,2.15,12.27,2.32,2.16.09,4.39.03,6.63-.96-.1-1.64.08-3.26-.35-4.71-1.07-3.59-2.37-7.13-5.27-9.75-2.07-1.87-4.05-3.89-6.75-4.82-2.17-.74-4.38-1.39-6.61-1.91-2.63-.61-5.37-.83-7.95-1.6-1.92-.57-3.69-.3-5.96-.17,1.65,2.35,3.14,4.46,4.7,6.68ZM170.09,69.4c2.07-.23,3.75-.18,5.3-.62,4.39-1.27,8.78-2.62,12.63-5.25.67-.46,1.55-.61,2.76-1.05-.48.76-.63,1.05-.83,1.31-2.96,4.05-5.14,8.52-7,13.15-.33.83-.2,1.85-.29,2.87.99.35,1.76.87,2.5.83,4.79-.24,9.62-.28,14.26-1.8,5.62-1.83,10.68-4.55,14.73-8.96.54-.59,1.02-1.05.69-1.92-1.54-.95-3.13-1.02-4.91-.53-2.28.63-4.64.97-6.96,1.45-.95.2-1.8.2-2.46-1.09.59-1.38,1.27-2.93,1.93-4.49.61-1.45,1.17-2.91-.04-4.62-1.45.14-3,.2-4.5.47-1.56.29-3.09.79-4.87,1.27,0-1.23,1.09-1.63,1.54-2.41.51-.9.9-1.88,1.27-2.67-.6-1.08-1.31-.86-2.07-.79-3.1.29-6.21.56-9.32.74-.84.05-1.7-.25-2.36-.35-.72-1.5.1-2.35.63-3.24.99-1.68,2.06-3.33,3.04-5.02.26-.44.32-1,.45-1.43-.32-.22-.45-.38-.59-.39-5.15-.25-9.89.93-14.06,4.07-.59.44-1.11.97-1.71,1.39-5.11,3.68-9.04,8.45-12.81,13.76.33.94.69,1.97.93,2.67,1.55,1.12,3.49.91,4.14,2.97-.8,1.43-1.67,2.97-2.57,4.57.89.74,1.71,1.52,2.64,2.17.59.42,1.32.66,2,.94,2.82,1.15,3.99.73,5.93-2.47v-5.53ZM248.07,119.64c-.54-.33-.86-.6-1.22-.75-4.39-1.87-10.17.49-11.94,4.91-.55,1.36-.87,2.81-1.4,4.17-1.29,3.29-.54,6.57.49,9.61,1.06,3.14,2.71,6.13,4.49,8.95,1.81,2.88,3.52,3.58,6.07,2.91,4.7-1.24,9.53-1.73,14.34-1.7,4.16.02,8.31.72,12.46,1.11,2.67.25,5.35.48,7.75.7,4.3-2.99,7.52-6.46,9.52-11.04,2.24-5.12,3.01-10.17-.08-15.3-1.81-1.08-3.64-2.16-5.36-3.18-2.79-.24-5.46-1.01-8.21.26.19.46.26.87.5,1.16.31.37.74.64,1.12.95,1.37,1.11,2.07,2.5,1.97,4.29-.18,3.2-.21,6.44-2.72,8.92-1.11,1.09-2.18,2.25-3.44,3.13-3.21,2.24-6.33,4.56-10.59,4.69-4.19.13-7.85-1.08-10.73-3.9-2.51-2.47-5.05-5.14-5.69-8.77.2-1.41.55-2.7.54-3.99-.01-1.94.22-3.75,1.35-5.39.32-.46.47-1.04.79-1.77ZM303.3,58.57c.16-1.91,1.63-2.49,2.87-3.23,2.88-1.72,5.8-3.38,8.12-5.87,1.77-1.91,3.56-3.81,5.28-5.77,1.07-1.23,2.1-2.5,3.01-3.85,1.9-2.82,3.74-5.68,5.11-8.82.57-1.3,1.32-1.48,3.25-1.11v4.74c2.41-1.63,4.11-3.36,4.79-5.99.54-2.12,1.27-4.19,2.05-6.74-.4-.86-.83-2.34-1.69-3.48-1.65-2.19-3.99-3.12-6.76-3.45-2.72-.33-5.56-.78-8.01-1.9-3.12-1.43-5.99-.86-9.18-.27-1.03,2.83-2.34,5.5-1.91,8.98,1.13-1.05,1.99-1.84,2.76-2.56,1.27.36,1.69,1.1,1.63,2.11-.06.9-.17,1.8-.35,2.68-1.39,6.8-4.22,13-7.79,18.9-.33.55-.57,1.18-.79,1.79-1.64,4.76-4.42,8.9-7.18,13.03-.97,1.46-2.39,2.54-4.3,1.85-.8-.56-.76-1.86-1.74-1.81-1.44,1.18-2.72,2.23-4.17,3.42,1.91,3.03,5.61,2.6,7.81,4.69,2.91-1.21,5.69-2.21,8.32-3.5,1.88-.92,3.59-2.21,5.36-3.37,2.12-1.39,4.25-2.78,6.34-4.22.95-.65,1.66-1.51,1.89-2.87-.53-.03-1.01-.21-1.29-.04-1.24.75-2.49,1.51-3.62,2.41-1.58,1.27-3.05,2.7-4.6,4.01-1.72,1.46-2.97,1.51-5.24.21ZM103.39,135.64c-.72.09-1.51.19-2.19.27-.37.32-.63.53-.86.75-2.54,2.42-5.07,4.85-7.6,7.27-.9.86-1.81,1.7-3.26,1.08-.39-2.3-.77-4.53-1.13-6.59-.98-.69-1.71-1.19-2.64-1.84-.83.39-1.86.62-2.52,1.24-1.35,1.28-2.65,2.67-3.69,4.2-1.77,2.61-2.41,5.71-2.86,8.76-.43,2.89-.41,5.85-.58,8.78-.07,1.13.03,2.34-1.38,2.91-.44-.24-.92-.41-1.3-.7-1.4-1.07-3-1.29-4.68-1.07-1.06.14-2.08.48-3.14.62-1.27.17-2.55.24-3.71.34-1.18-1.56-1.69-2.95-1.56-4.61.11-1.46.22-2.95-.53-4.39-1.4-.64-2.8-1.47-4.4-.73-1.77.81-3.19,2.05-3.55,4.1-.29,1.68-.46,3.38-.58,4.33,1.43,4.65,4.75,6.85,7.39,9.6,1.29,1.35,2.77,2.53,4.03,3.67,1.99.17,3.41-.65,4.82-1.48,1.41-.83,2.92-1.54,4.21-2.52,1.26-.96,2.31-2.21,3.6-3.48.74.72,1.42,1.39,2.1,2.05,2.04.14,3.16-.16,4.65-1.05,3.33-1.98,5.98-4.81,8.98-7.19.31-.25.52-.63.8-.92,3.1-3.1,5.4-6.79,7.73-10.46,1.9-3,3.23-6.24,4.33-9.59.37-1.13.52-2.24-.49-3.35ZM89.59,166.88c-2.61.8-3.77,3.07-4.3,5.41-1.23,5.4.38,10.07,4.45,14.12,1.12-.26,2.24-.29,3.13-.76,2.52-1.35,4.95-2.85,7.39-4.34.48-.29.9-.75,1.21-1.22,2.34-3.51,4.47-7.09,4.33-11.54-.04-1.21.18-2.4,1.08-3.47,1.64.85,3.22,1.66,4.57,2.36,2.65-.35,4.23-2,5.94-3.36.57-.46.92-1.32,1.15-2.07.66-2.09,1.17-4.22,1.8-6.31.73-2.43,1.52-4.83,2.27-7.25.51-1.65.82-3.31.13-4.93-1.21-.46-2.04.09-2.8.74-1.3,1.13-2.59,2.28-3.82,3.48-.75.73-1.5,1.25-2.76.92-.19-.31-.6-.7-.66-1.13-.22-1.7-.54-3.42-.42-5.11.25-3.48.76-6.95,1.18-10.61-.17-.16-.45-.42-.76-.71-2.82.82-4.27,2.96-5.55,5.26-1.36,2.43-1.3,5.21-1.88,7.84-.37,1.68-.86,3.39-.81,5.07.1,3.02.58,6.03.88,9.04.08.78.1,1.57.15,2.46-3.45,1.58-5.07,4.62-6.88,7.52-.64,1.03-1.48,1.96-2.31,2.86-.9.97-1.98,1.48-3.27.69-1.75-1.2-1.08-4.02-3.44-4.98ZM205.18,10.37c-1.77.71-3.59,1.46-5.42,2.18-1.82.71-3.65,1.43-5.5,2.07-.91.31-1.92.37-2.83.67-1.86.61-3.67,1.37-5.53,1.96-2.81.9-3.7,2.08-3.64,5.01.12,6.01,3.25,10.68,6.9,15.05,1.56,1.87,3.47,3.45,5.27,5.11.69.64,1.52,1.13,2.36,1.74.55-1.36-.05-2.09-.64-2.91-.72-.99-1.32-2.07-1.9-3.15-.61-1.15-1.28-2.29-1.64-3.52-.45-1.5-1.84-2.78-1.16-4.7.38-.14.81-.3,1.53-.56.16.28.29.59.48.86,2.28,3.19,4.47,6.47,6.9,9.55,1.8,2.27,3.62,4.52,5.95,6.41,2.09,1.69,4.09,3.51,6.39,4.92,1.9,1.17,3.71,2.56,6.04,3.09-.72-1.65-1.55-3.19-2.5-4.64-2.49-3.81-5.05-7.57-6.84-11.77-.82-1.94-1.33-4.03-2.24-5.93-.8-1.68-1.31-3.33-1.26-5.19.02-.64-.22-1.28-.33-1.87.31-1.51,1.13-2.39,2.65-2.47.65.31,1.28.6,1.99.93-.07-1.97-.44-3.8-.11-5.5.39-2.02.03-3.86-.22-5.67-1.27-1.55-3.06-1.21-4.68-1.65ZM72.68,127.18c0-1.47-.17-2.4.03-3.23.58-2.37,1.08-4.82,2.05-7.04,1.79-4.1,2.83-8.41,4.2-12.61-1.28-.97-2.17-.29-2.93.45-1.81,1.76-3.59,3.56-5.3,5.42-1.99,2.17-4.1,4.27-5.78,6.66-4.65,6.62-7.92,13.9-9.74,21.8-.59,2.54-1.18,5.08-.96,7.64,1.09,1.07,2.22,1.65,3.65,1.25,4.63-1.31,9.3-2.41,13.32-5.37,3.88-2.86,7.75-5.67,11.22-9.05,3.01-2.93,5.01-6.65,7.83-9.72.77-.84,1.01-1.97,1.18-3.06-1.18-.69-1.97-.01-2.85.43-1.9.96-3.81,1.9-5.74,2.78-1.93.88-3.88,1.73-5.87,2.47-1.27.47-2.62.72-4.32,1.17ZM111.35,67.02c1.01,1.78,3.6,3.55,5.81,3.76,5.17.5,10.28.3,15.19-1.66,7.88-3.13,15.32-7.04,21.83-12.54,1.42-1.2,2.6-2.7,3.76-4.17.46-.58.58-1.43.86-2.18-1.38-.7-2.51-.5-3.6-.11-1.31.46-2.72.82-3.85,1.58-3.55,2.38-7.57,3.43-11.64,4.36-1.75.4-3.55.59-5.34.77-1.17.12-2.28-.13-3.02-1.22.12-1.14.54-2.04,1.33-2.84,2.11-2.16,4.17-4.38,6.23-6.59.14-.15.14-.42.23-.74-.44-.15-.82-.4-1.18-.38-1.8.11-3.63.14-5.39.49-1.16.23-2.23.95-3.33,1.49-1.17.57-2.29,1.24-3.49,1.76-3.01,1.29-5.58,3.27-7.51,5.78-2.88,3.74-5.77,7.56-6.89,12.45ZM402.53,110.84c1.84,4.7,2.14,9.57,1.91,14.56-.34.3-.71.61-1.04.9-3.7-.47-6.61-3.58-10.86-2.75-.28.79-.68,1.65-.91,2.56-.76,3.02.15,5.85,1.29,8.56,1.88,4.45,4.98,8.05,8.61,11.18,2.71,2.34,6,3.56,9.45,4.94.69-.87,1.47-1.54,1.84-2.39.69-1.56,1.27-3.19,1.69-4.84.83-3.3,1.51-6.64,2.16-9.54-.22-1.81-.56-3.25-.55-4.7.03-3.77-1.16-7.33-2.54-10.64-1.66-3.98-4.6-7.25-8.83-8.94-.69.34-1.34.67-2.21,1.1ZM433.15,105.56c-3.02,1.23-5.93,2.01-9.13,1.67-2-.21-4.03-.04-6.48-.04.65.8,1.04,1.54,1.64,1.98,2.9,2.11,5.78,4.26,8.81,6.17,3.32,2.1,7,3.54,10.72,4.73,2.79.89,5.72,1.36,8.62,1.85,1.32.22,2.72.04,4.33.04-.29-1.78-.36-3.28-.79-4.66-1.34-4.28-3.05-8.41-5.26-12.33-.6-1.06-1.15-2.15-1.73-3.23-.89-1.64-1.79-3.28-2.69-4.91-.23-.42-.44-.89-.78-1.22-2.03-2-4.78-3.07-6.73-5.19-.21-.23-.56-.37-.87-.45-2.75-.73-5.5-1.49-8.28-2.13-1.23-.28-2.52-.34-4.07.53,1.11,1.12,2.06,1.97,2.87,2.94,2.73,3.26,5.51,6.48,8.05,9.88.86,1.15,2.03,2.4,1.77,4.38ZM76.71,334.98c2.14.63,3.14,1.7,4.25,2.65.85.73,1.71,1.48,2.68,2.03,2.56,1.45,5.17,2.8,7.73,4.17.39.79.75,1.51,1.04,2.1,1.21-.5,2.3-.96,3.42-1.42,0-.56.04-1.05-.01-1.53-.05-.49-.16-.97-.29-1.45-1.48-5.5-3.85-10.6-6.95-15.36-.74-1.14-1.54-2.31-2.96-2.57-2.03,1.49-.21,4.71-3.04,5.79-4.19-1.57-8.43-2.02-12.31.99-.61,2.72.26,5.47-1.01,8.23-2.44-1.11-4.73-2.15-7.1-3.23-.64.42-1.21.79-1.84,1.2,1.76,3.85,2.93,7.68,5.23,11.03,3.08,4.5,6.92,8.02,12.01,10.05.85.34,1.85.32,3.11.52,0-.97.04-1.58,0-2.18-.2-2.53-.42-5.05-.64-7.58-.06-.64-.09-1.31-.26-1.92-.81-2.83-1.68-5.64-2.49-8.46-.23-.82-.31-1.69-.55-3.05ZM211.29,350.82c3.52.32,4.8-.28,6.09-2.97,1.7-3.53,3.37-7.08,4.86-10.7,1.43-3.47,2.62-7.05,3.9-10.58.11-.3.07-.66.15-.97,1.25-4.92,2.51-9.84,3.75-14.76.78-3.08,1.55-6.16,2.3-9.24.53-2.14,1.08-4.27,1.52-6.43.86-4.23,1.67-8.47,2.47-12.71.71-3.77,1.37-7.54,2.05-11.31.27-1.5.57-3.01.85-4.51.07-.39.13-.78.2-1.17.61-3.51,1.45-6.99,1.43-10.59,0-.73-.03-1.48.07-2.2.83-5.99,1.68-11.97,2.55-17.95.49-3.39,1.06-6.77,1.57-10.16.47-3.07.95-6.15,1.36-9.23.12-.95.02-1.92.02-3.02-.58.07-.96.12-1.44.19-.16.7-.35,1.32-.44,1.96-.85,5.83-1.66,11.67-2.54,17.49-.96,6.31-1.92,12.61-2.99,18.9-.46,2.71-1.41,5.34-1.78,8.06-.73,5.36-1.76,10.64-3.13,15.87-.75,2.85-1.26,5.76-1.97,8.62-1.39,5.54-2.85,11.06-4.3,16.59-.16.63-.4,1.24-.6,1.87-.97,3.02-2.05,6.02-2.08,9.04-.51.95-1.11,1.68-1.32,2.52-1.31,5.22-2.62,10.44-4.56,15.47-2.38,6.16-4.75,12.33-7.08,18.5-.39,1.05-.59,2.17-.92,3.45ZM268.19,217.34c0,1.01.1,2.01-.02,2.98-.5,4.07-.49,8.14-.27,12.23.29,5.4.48,10.8.69,16.21.09,2.38.02,4.78.21,7.15.33,3.99.84,7.96,1.21,11.94.38,4.08.62,8.18,1.04,12.26.49,4.8,1.04,9.6,1.68,14.39.59,4.37,1.25,8.74,2.02,13.09,1.24,6.94,2.59,13.86,3.91,20.79.24,1.28.45,2.58.81,3.83.76,2.66,1.58,5.3,2.44,7.93.66,2,1.41,3.97,2.14,6,.91.06,1.63.1,2.35.15.4-.56.72-1.01,1.12-1.58-.81-2.64-1.63-5.29-2.43-7.95-.82-2.74-1.83-5.45-2.39-8.25-1.36-6.83-2.53-13.7-3.73-20.57-.85-4.84-1.68-9.69-2.39-14.56-.46-3.16-.66-6.36-1.01-9.54-.44-3.98-.97-7.95-1.38-11.93-.26-2.52-.31-5.07-.52-7.6-.28-3.43-.73-6.84-.91-10.28-.29-5.74-.42-11.49-.61-17.23-.07-2.22-.18-4.43-.2-6.65-.03-4.27,0-8.55,0-13.07-.46-.75-1.07-1.74-1.79-2.93-.73,1.18-1.28,2.07-1.97,3.19ZM167.42,346.14c-1.19,1.24-2.7,1.18-4.16,1.12-2.21-.1-4.41-.41-6.62-.48-3.4-.12-6.14,1.62-7.42,4.58.3,1.53,1,2.77,2.59,3.28,3.11.99,6.18,2.19,9.36,2.85,3.66.76,7.39,1.34,11.18.54,1.35-.29,2.77-.24,4.12-.51,2.96-.59,5.93-1.17,8.83-1.99,1.98-.56,2.86-2.52,2.34-4.51-.16-.62-.47-1.22-.76-1.79-1.74-3.4-4.38-6.04-7.24-8.49-.87-.75-1.79-1.44-2.67-2.17-2.75-2.3-5.89-3.43-9.34-3.3-2.2,1.88-2.22,1.94-2.11,5.61.46,1.93,2.45,3.14,1.91,5.29ZM98.5,379.98c-2.05.83-3.68.21-5.16-.67-3.57-2.11-6.65-4.83-8.85-8.35-1.42-2.27-3.64-3.02-5.93-4.36,0,.9-.14,1.5.02,2,.72,2.17,1.28,4.44,2.37,6.41,1.38,2.49,2.98,4.93,4.9,7.01,3.03,3.28,6.76,5.64,11.13,6.94,1.24.37,2.36.52,3.19.36,2.11-1.11,1.35-3.84,3.73-4.7,1.42,1.23,2.95,2.44,4.34,3.79,1.82,1.76,3.47,3.71,5.34,5.42,1.56,1.43,3.27,2.72,5.02,3.92,3.89,2.68,8.4,4.08,12.72,5.86,1.19.49,2.53.67,3.81.89,1.02.17,2.1,0,2.57-1.03.65-1.4,1.29-2.83.87-4.48-.68-2.7-1.13-5.47-3.25-7.9-1.7-1.14-3.7-2.42-6.3-2.8-.89,1.21-1.79,2.44-2.69,3.67-3.02-.29-5.68-1.31-7.81-3.06-3.97-3.26-8.62-4.96-13.24-6.64-1.21.32-2.31.62-3.37.9-1.16-1.08-2.23-2.07-3.43-3.18ZM481.19,263.39c-3.16,3.52-4.55,7.93-6.45,12.2-.68-.03-1.31-.06-1.9-.09-1.72-2.46-3.41-4.77-4.98-7.16-.99-1.5-2.24-2.06-3.96-1.71-2.2,1.53-2.1,3.74-1.85,5.97.39,3.42,1.18,6.75,2.36,9.97,1.51,4.12,3,8.27,5.16,12.12.9,1.6,2.1,2.68,3.84,3.04,2.4-.81,4.24-2.25,5.6-4.28.68-1.01,1.13-2.17,1.8-3.19,2.28-3.48,3.66-7.29,4.26-11.39.12-.8.27-1.6.41-2.39.64-3.74,1.06-7.46-.25-11.17-.36-1.02-.81-1.76-2-2.15-.58.07-1.3.15-2.04.24ZM128.94,78.04c-1.48-.4-2.52.13-3.54.61-3.32,1.56-6.58,3.23-9.92,4.74-3.45,1.56-7.07,2.6-10.89,2.67-.91.02-1.83-.42-2.86-.68-.14-4.32,3-7.49,3.08-11.49-1.48-.69-2.83-.76-4.29-.04-1.72.84-3.2,1.9-4.56,3.27-3.88,3.92-6.32,8.68-8.27,13.75-.61,1.6-1.28,3.21-1.65,4.87-.25,1.12-.05,2.35-.05,3.51.85.38,1.44.63,1.76.78,1.83-.29,3.35-.6,4.9-.78,5-.57,9.65-2.29,14.17-4.39,2.22-1.03,4.37-2.24,6.65-3.11,6.8-2.59,11.7-7.27,15.47-13.71ZM435.23,121.54c-1.06-.06-2.04-.12-2.68-.16-1.15.58-1.99,1-2.77,1.39,2.13,5.06,3.95,10.05,3.5,15.53-1.75.25-2.66.13-4.2-.85-2.04-1.29-3.98-2.72-6-4.05-.63-.42-1.34-.7-2.01-1.04-.99,1.57-1.15,3.11-1.03,4.5.33,3.76,1.8,7.05,4.41,9.89,2.44,2.65,5.01,5.11,7.8,7.38,2.01,1.63,4.26,2.74,6.62,3.66.93.36,2.04.25,3.33.38.27-1.53.56-2.78.69-4.04.26-2.52.63-5.05.59-7.57-.06-3.66-.38-7.33-.73-10.98-.17-1.76-.25-3.75-1.11-5.19-1.83-3.05-4.15-5.8-6.41-8.86ZM387.29,119.01c-.05-.86,0-1.77-.17-2.62-.46-2.16-1-4.31-1.54-6.45-.38-1.49-.62-3.02-1.81-4.21-.54-.54-.79-1.43-1.05-2.2-.62-1.84-1.04-3.75-1.77-5.54-1.03-2.5-2.34-4.86-4.11-6.94-1.84-2.16-5.88-3.35-8.96-2.33.16,1.05.21,2.19.53,3.24.82,2.66,1.48,5.32,1.51,8.25-.7.09-1.35.38-1.79.19-2.47-1.08-4.93-2.18-7.3-3.45-1.76-.95-3.38-2.17-5.27-3.4-.36.66-.87,1.15-.82,1.57.16,1.27.19,2.76.88,3.73,1.84,2.59,3.74,5.24,6.09,7.34,2.78,2.49,5.93,4.64,9.14,6.56,3.71,2.22,7.63,4.12,11.55,5.95,1.33.62,2.89,1.29,4.89.32ZM311.65,71.31c.9,1,1.71,2.15,2.76,3.01,2.28,1.87,4.56,3.79,7.06,5.32,3.61,2.22,7.21,4.55,11.52,5.33,4.27.77,8.54,1.58,12.78,2.49,1.33.28,2.55.23,3.91-.18.55-2.91-.34-5.48-1.81-7.86-.93-1.5-1.9-3-3.38-4.14-1.14-.88-1.95-2.17-2.96-3.24-1.04-1.11-2.13-2.16-3.2-3.24-.56-.68-1.53-1.04-1.98-1.74-1.27-1.99-3.18-3-4.45-3.61-4.22-.81-7.51-2.34-11.57-2.35.71.88,1.09,1.49,1.6,1.96,1.31,1.22,2.71,2.35,4.02,3.57,1.13,1.06,2.11,2.24,2.47,4.04-2.04,1.2-4.24,1.41-6.37,1.16-2.84-.33-5.63-1.04-8.43-1.63-.79-.16-1.48-.27-1.98,1.1ZM161.49,331.21c-.42-1.49-.73-3.47-1.52-5.23-.83-1.85-2.05-3.54-3.2-5.23-3.53-5.18-8.27-9.07-13.63-12.18-1.37-.79-2.86-2.15-4.83-1.02-.14,1.34.44,2.47,1.16,3.58,1.28,1.99,2.55,3.98,3.74,6.02.77,1.32,1.38,2.74,1.53,4.45-1.17.65-2.37.87-3.6.79-3.74-.25-7.08,1.17-10.44,2.49-.48.19-.83.71-1.22,1.05.69,2.14,2.21,3.38,3.85,4.47,3.05,2.03,6.65,2.73,10.02,3.99,2.44.91,5.02.67,7.5,1.2,2.83.6,5.47.36,8.12-.92,1.4-.68,2.29-1.48,2.52-3.45ZM355.15,358.43c-1.25-.87-1.26-.89-2.62-.47-7.18,2.22-14.52,3.15-22.04,2.77-1.52-.08-2.88-.44-4.33-1.27-.17-.59-.38-1.29-.66-2.24.75-.86,1.51-1.8,2.35-2.66,1.71-1.77,3.49-3.48,5.19-5.26.46-.49.75-1.15,1.35-2.09-.98-.1-1.49-.23-2-.19-2.43.21-4.42,1.65-6.66,2.43-1.72.6-3.26,1.52-4.61,2.76-2.71,2.49-5.56,4.83-8.15,7.44-1.8,1.82-2.88,4.12-2.65,6.71,1.89,1.81,4.11,2.17,6.28,2.47,6.64.91,13.3,1.31,19.99.57,1.21-.13,2.4-.5,3.59-.76,3.87-.84,7.64-1.87,10.47-4.94.44-.47,1.05-.78,1.55-1.2,1.34-1.1,2.58-2.28,2.94-4.08ZM232.06,338.37c1.85-.25,2.24-1.62,2.55-2.85,2.03-7.93,4.27-15.8,5.78-23.86,1.21-6.45,2.53-12.87,3.69-19.32.77-4.26,1.2-8.58,2.02-12.83,1.26-6.52,2.05-13.09,2.89-19.67.51-3.98,1.1-7.95,1.6-11.93.11-.91.02-1.85.02-2.78-.13-.73.25-1.5.12-2.16-.57-2.83.37-5.54.49-8.3.12-2.85.56-5.69.71-8.55.24-4.57.48-9.14.48-13.71,0-3.26-.38-6.51-.62-9.77-.01-.19-.28-.37-.52-.67-.39.29-.75.56-1.12.84.06.5.13.9.15,1.3.19,3.34.48,6.69.51,10.03.02,2.2-.58,4.42-.44,6.6.29,4.68-1.42,9.18-1,13.84,0,.08-.04.16-.05.24-.49,3.31-.97,6.61-1.46,9.92-.54,1.17-1.09,2.37-1.33,3.62-.43,2.25-.69,4.53-1,6.8-.36,2.67-.73,5.35-1.04,8.03-.24,2.03-.31,4.08-.61,6.1-.61,4.21-1.29,8.41-1.98,12.61-.87,5.25-1.71,10.51-2.7,15.74-.72,3.84-1.7,7.63-2.49,11.45-.53,2.56-.79,5.18-1.41,7.72-1.34,5.48-2.85,10.93-4.27,16.39-.34,1.32-.62,2.65-.94,4.02.85.5,1.47.86,1.96,1.14ZM464.24,164.21c1.18.3,2.4.5,3.54.91,1.74.63,3.43.37,5.06-.21,1.14-.4,1.89-1.31,1.87-2.63-.01-.65-.08-1.31-.15-1.96-.46-4.16-1.72-8.12-2.93-12.1-.74-2.43-1.86-4.66-3.21-6.79-.82-1.29-1.64-2.6-2.58-3.8-1.68-2.13-3.7-3.81-6.61-4.48-.51,1.09-.95,2.02-1.39,2.95.61,1.49,1.06,3,1.81,4.32,1.12,1.97,2.51,3.79,3.7,5.73.42.69.66,1.51.86,2.3.17.66.05,1.32-.85,1.65-.45-.19-.99-.37-1.49-.64-3.16-1.71-6.63-2.35-10.12-2.87-1.46-.22-2.98-.22-3.98,1.19-.2,2.17-.3,4.28,1.17,6.31,4.81,3.53,9.57,7.6,15.3,10.11ZM381.97,77.12c3.25,2.93,5.25,6.68,6.78,10.53-.58,1.37-1.53,1.26-2.41,1.08-2.61-.52-5.2-1.1-7.91-1.67-.18.35-.56.75-.49,1.04.17.78.39,1.62.84,2.26,1.72,2.42,3.82,4.5,6.28,6.13,5.49,3.64,11.46,6.3,17.67,8.44,1.19.41,2.3,1.04,3.76,1.71.43-.44,1.09-1.11,1.81-1.84-.33-1.55-.65-2.98-.94-4.41-.24-1.19-.77-2.42-.63-3.57.39-3.41-1.59-5.45-3.81-7.42-2-1.77-4.18-3.38-5.95-5.36-1.02-1.14-2.03-2.07-3.32-2.59-2.17-3.99-5.85-5.49-9.42-6.64-.89.92-1.51,1.56-2.25,2.32ZM240.55,359.57c.65-.68,1.33-1.46,2.08-2.17,1.29-1.24,2.5-2.62,3.96-3.61,1.97-1.32,4.11-1.34,6.18.08.84.58,1.82.96,2.41,1.26,1.63-.51,2.79-.91,3.97-1.24,3.98-1.1,7.19,1.6,6.77,5.65-.07.62,0,1.26,0,2.19,3.7.25,7.17.49,10.68.72.11-.07.28-.14.37-.26.2-.26.4-.53.53-.82.95-2.23,1.29-4.49.79-6.94-1.23-6.06-5.08-8.11-9.85-8.53-3.27-.28-6.3.56-9.12,2.26-.82.49-1.8.73-2.78,1.11-1.2-.87-2.31-1.69-3.45-2.47-3.56-2.46-7.4-2.84-11.14-.77-2.88,1.58-5.17,4.01-6.85,6.91-.77,1.32-.77,2.28.32,3.34,1.34,1.3,2.65,2.72,5.14,3.28ZM34.6,244.92c-1.89,1.59-3.04,4.58-3.08,7.06-.07,3.9.62,7.69,1.76,11.36.82,2.64,1.8,5.31,3.22,7.66,1.29,2.13,3.23,3.88,4.96,5.72.46.5,1.21.73,1.71,1.02,2.35-.8,3.47-2.5,4.34-4.37.89-1.92,1.7-3.9,2.46-5.88,1.39-3.58,2.26-7.27,2.55-11.13.24-3.24-.49-6.34-.73-9.51-.02-.28-.31-.54-.45-.78-1.17.11-1.94.65-2.43,1.56-1,1.87-1.99,3.75-2.91,5.66-.68,1.4-1.25,2.84-1.85,4.27-.31.74-.78,1.24-1.85,1.16-.88-.72-1.48-1.78-1.87-2.95-1.01-3.04-2.47-5.87-3.75-8.79-.44-1.01-1.01-1.61-2.08-2.06ZM146.7,360.95c.07-1.29.48-2.53.14-3.53-1.14-3.4-2.29-6.84-3.93-10.01-1.38-2.66-3.18-5.17-5.64-7.07-.32-.25-.6-.57-.85-.89-2.02-2.64-4.88-4.05-7.84-5.26-.56-.23-1.32.01-2.19.05.17.95.19,1.61.4,2.19.65,1.77,1.41,3.49,2.07,5.26.3.8.44,1.66.63,2.37-2.35,2.1-5.35,1.2-7.58,2.46-1.07,2.12-1.14,2.15-.42,4,.41,1.05,1.05,2.01,1.64,2.98,1.92,3.19,4.81,5.32,8.34,6.02,4.4.87,8.93,1.12,13.41,1.61.47.05.97-.09,1.83-.17ZM206.81,371.47c.47.33,1,.71,1.53,1.09,3.24,2.35,6.43,2.51,9.78.26,3.31-2.23,6.26-4.94,9.21-7.63,1.01-.92,1.5-2.01,1.87-3.21.48-1.56.92-3.14,1.32-4.72.31-1.24.54-2.5.73-3.37-.83-1.93-2.14-2.69-3.58-3-1.25-.27-2.73-.48-3.87-.07-5.32,1.92-10.51,4.26-14.51,8.36-3.25,3.33-5.16,7.26-2.47,12.28ZM76.1,254.18c-1.48,2.9-3.28,5.26-3.99,8.2-.32,1.32-1.18,1.52-3.15,1.11-.89-1.55-2.05-3.17-2.8-4.96-1.22-2.91-3.16-5.1-5.58-6.85-.68.04-1.23.08-1.92.12-.9,2.62-1.6,5.24-1.09,7.96.67,3.62,1.6,7.17,3.09,10.58,1.74,3.99,3.78,7.77,6.63,11.25,2.21.1,3.72-1.39,5.14-2.8,2.8-2.79,4.25-6.35,5.25-10.11.61-2.29,1.27-4.57,1.73-6.89.37-1.84.59-3.72.68-5.59.07-1.41-.32-2.75-1.92-3.34-.74.48-1.43.92-2.06,1.33ZM147.41,43.56c.77.34,1.49.81,2.26.96,2.09.39,4.2.87,6.31.91,4.18.08,8.37-.15,12.44-1.21,3.24-.85,6.44-1.84,9.6-2.94,1.45-.5,2.7-1.47,3.56-3.15-.72-.26-1.29-.54-1.89-.67-3.03-.67-6.08-1.29-9.11-1.97-1.54-.35-2.94-.94-3.75-2.7,1.74-1.54,3.44-3.05,5.18-4.58.35-.83.71-1.68,1.08-2.57-.23-.15-.44-.41-.63-.39-1.94.21-3.94.23-5.8.75-3.15.87-6.23,2-9.3,3.13-.89.33-1.79.89-2.45,1.57-1.24,1.29-2.31,2.74-3.44,4.13-.06.07.07.28.13.53h2.16c-1.67,1.26-2.91,2.15-4.1,3.1-1.51,1.21-2.81,2.55-2.23,5.09ZM430.1,352.09c-2.63.28-3.65,2.11-4.45,3.99-1.07,2.54-2.05,5.14-2.81,7.79-.88,3.05-1.44,6.2-2.24,9.28-.7,2.67.41,4.74,1.8,6.82,2.08-.39,3.63-1.47,5.14-2.57,5.39-3.91,10.21-8.48,14.41-13.6,2.81-3.42,5.09-7.25,5.13-12.2-.28-.5-.67-1.2-1.05-1.89h-2.41c-.73.95-1.57,2.04-2.42,3.13-1.69,2.19-3.36,4.4-5.09,6.56-.94,1.17-2.13,1.81-3.81,1.02-1.74-2.36.05-5.82-2.2-8.33ZM423.48,159.14c-.66-1.27-1.58-3.07-2.5-4.87-.4-.03-.71-.05-1.04-.08-.52,2.46-.92,4.85-1.55,7.19-.63,2.34-1.5,4.62-2.16,6.61-1.78.95-2.83.22-3.6-.77-1.25-1.6-2.3-3.34-3.47-4.99-.83-1.18-1.68-2.37-3.51-2.68-.35.84-.75,1.62-1.01,2.44-.94,3.01-.56,6.05.31,8.96,1.71,5.69,4.35,10.94,7.96,15.69,1.29,1.69,2.8,2.39,5.21,1.89.62-1.3,1.32-2.75,2-4.21,1.78-3.84,2.45-7.94,2.71-12.11.27-4.16.42-8.33.65-13.07ZM360.26,339.83c-.26-.39-.51-.78-.89-1.37.73-.91,1.35-1.88,2.16-2.65,2.79-2.67,4.42-6.04,5.8-9.55.18-.46.02-1.05.02-1.7-.99,0-1.84-.18-2.58.04-1.8.52-3.56,1.21-5.32,1.86-3.08,1.13-5.29,3.47-7.65,5.59-.84.76-1.55,1.68-2.43,2.39-2.32,1.9-3.64,4.56-5.35,6.91-1.62,2.23-2.96,4.69-3.58,7.62.52.3.98.76,1.48.81,1.52.14,3.11.38,4.58.1,4.49-.85,9.04-1.51,13.21-3.57,1.02-.5,2.31-.62,3.12-1.32,1.78-1.54,3.36-3.32,4.97-5.05.68-.73.98-1.63.45-2.71-2.74.73-4.98,2.71-7.99,2.59ZM166.28,86.26c-.49-.61-1.04-1.32-1.62-2-1.56-1.81-4.18-1.96-5.84-.25-1.47,1.53-2.95,3.08-4.22,4.78-2.5,3.33-4.37,7.06-6.19,10.79-.51,1.05-.51,2.34-.72,3.41,1.44,1.37,2.76,1.53,4.28.81.95-.45,1.98-.75,2.98-1.08,4.82-1.61,9.44-3.6,13.71-6.43,4.7-3.11,7.77-7.44,9.84-12.54.55-1.35,1.56-2.71,1.09-4.51-1.55-.41-2.73.21-3.81,1.15-1.43,1.24-2.83,2.49-4.27,3.72-1.45,1.24-2.97,2.36-5.23,2.14ZM285.92,355.78c-.33,1.36-.59,2.72-1,4.03-.98,3.09-.8,6.25.02,9.22,1.57,5.75,7.79,12.48,16.62,10.1,2.13-1.43,3.33-3.46,3.23-6-.18-4.59-1.89-8.48-5.29-11.74-1.86-1.79-4.06-3-6.14-4.38-2.05-1.36-4.46-2.08-7.44-1.23ZM398.66,312.2c-.69-.08-1.17-.25-1.62-.18-2.08.33-3.89,1.26-5.46,2.63-2.33,2.05-4.49,4.16-6.1,6.96-1.41,2.46-3.31,4.62-4.21,7.4-.3.93-.89,1.76-1.17,2.69-.38,1.28-1.21,2.52-.56,4.02,1.96.89,3.98.95,5.99.38,4.79-1.37,9.52-2.85,13.95-5.29,3.7-2.04,6.11-5.1,8.21-8.56.4-.66.63-1.32.16-2.05-.27-.07-.53-.22-.73-.17-3,.71-6.01,1.41-9,2.19-.74.2-1.39.49-2.15-.31.68-3.17,2.33-6.21,2.67-9.71ZM444.36,172.33c-2.76-2.01-5.01-4.27-7.18-6.66-2.16-2.39-4.62-4.51-5.97-7.8-.97.56-1.71.98-2.15,1.23-1.21,2.78-.78,5.12.06,7.53.98,2.8,2.25,5.4,3.95,7.84,3.02,4.32,6.23,8.44,10.63,11.44,1.16.79,2.41,1.85,4.32.85,1.94-2.45,2.82-5.55,2.96-8.84.08-1.89-.07-3.78,1.15-5.77-.71-2.47-1.39-5.15-2.26-7.77-.49-1.47-1.61-1.89-3.69-1.74-.43.61-.9,1.27-1.27,1.79-.07,2.66.98,5.21-.55,7.9ZM363.19,41.26c-2.67,2.05-5.7,2.4-9.1,2.86.83.54,1.26.9,1.75,1.13,5.35,2.51,10.87,4.39,16.79,5.08,2.04.24,4.06.51,6.11.21.95-.14,1.98-.11,2.64-1.19-.35-.8-.6-1.68-1.08-2.42-.69-1.1-1.82-1.99-2.25-3.16-.96-2.59-3.01-3.89-5.12-5.31-2.08-1.4-3.96-3.1-5.73-4.5-1.76-.91-3.36-1.64-4.87-2.54-1.63-.97-3.32-1.71-5.21-1.91-1.46-.16-2.95-.21-4.38-.49-3.14-.61-6.19-.15-9.23.58-.49.12-.92.46-1.49.76,1.38,1.6,3.22,1.53,4.81,2.03,1.93.61,4.02.89,5.79,1.8,3.25,1.69,6.32,3.72,9.43,5.65.43.27.69.82,1.16,1.41ZM92.56,347.11c-1.1,1.72-1.3,3.2-1.06,4.78.17,1.13.27,2.27.39,3.41.11,1-.27,1.76-1.37,2.32-1.88-.28-4.13-1.12-5.41,1.54-.85,4.29-.85,8.31-.18,9.67,5.37,3.37,10.36,6.82,16.43,8.13.85-.71,1.59-1.33,2.26-1.88.76-11.12-3.67-19.96-11.06-27.96ZM275.31,205.95c-.08.52-.23.99-.23,1.47-.01,4.76-.05,9.51.02,14.27.11,7.05.13,14.09.93,21.12.42,3.69.86,7.38.84,11.15-.02,4.46.71,8.95,1.34,13.39.69,4.94,1.62,9.86,2.45,14.78.52,3.06,1.16,6.11,1.54,9.19.58,4.62.92,9.27,2.02,13.81.44,1.83.87,3.66,1.22,5.51.21,1.12.19,2.28.37,3.41.31,1.93.54,3.88,1.08,5.75,1.07,3.68,2.43,7.27,3.49,10.96,1.29,4.47,2.06,9.08,3.83,13.42.74,1.82,1.31,3.71,2.07,5.52.66,1.58,1.82,2.6,3.89,2.6-.47-1.69-.87-3.17-1.31-4.65-1.03-3.45-1.95-6.94-3.13-10.34-1.45-4.17-2.93-8.31-3.59-12.69-.2-1.37-.5-2.67-1.05-4-1.06-2.54-1.82-5.2-2.59-7.85-.64-2.19-1.15-4.42-1.67-6.64-.74-3.17-2.11-6.22-1.86-9.59.02-.24,0-.5-.04-.74-.99-5.55-1.92-11.11-3.01-16.64-1.11-5.62-1.21-11.39-2.71-16.95-.25-.93-.29-2.02-.06-2.94.29-1.17.07-2.22-.06-3.34-.51-4.71-.94-9.44-1.38-14.16-.2-2.12-.51-4.23-.56-6.35-.12-5.65-.14-11.31-.18-16.96-.02-2.6.03-5.21-.02-7.81-.03-1.53-.21-3.06-.33-4.69h-1.33ZM505.51,473.85c-2.57-1.34-4.8-2.76-7.2-3.72-5.54-2.22-11.13-4.35-16.78-6.27-6.27-2.14-12.6-4.13-18.98-5.94-4.4-1.25-8.89-2.33-13.41-3.04-6.56-1.03-13-2.69-19.67-3.15-4.06-.28-8.09-.99-12.18-1.02-5.65-.04-11.3-.23-16.95-.17-5.82.06-11.63.3-17.45.51-2.46.09-4.92.25-7.37.44-3.59.28-7.18.63-10.76.93-2.62.22-5.24.38-7.85.65-2.93.31-5.87,1.09-8.77.96-2.48-.12-4.69.54-7,.99-.72.14-1.45.29-2.17.42-3.79.71-7.58,1.41-11.37,2.14-.71.14-1.49.3-1.5,1.29,1.15.67,1.15.69,2.19.49,2.17-.41,4.36-.79,6.51-1.28,7.69-1.74,15.52-2.41,23.34-3.2,2.69-.27,5.37-.64,8.06-.86,2.86-.24,5.73-.34,8.6-.53,4.74-.31,9.48-.72,14.23-.95,3.36-.16,6.72-.06,10.09-.12,2.55-.04,5.1-.3,7.64-.22,5.49.16,10.97.4,16.45.74,3.67.23,7.34.53,10.97,1.07,4.7.7,9.37,1.6,14.03,2.53,7.15,1.42,14.26,2.98,21.19,5.3,5.89,1.97,11.82,3.83,17.66,5.94,4.6,1.66,9.34,3.03,13.59,5.6,1.29.78,2.72,1.34,4.22,2.07.26-.65.4-.99.64-1.59ZM361.57,361.09c1.5.14,3.05.47,4.58.38,2.45-.14,4.89-.48,7.31-.88,2.26-.37,4.52-.84,6.74-1.43,2.56-.68,4.2-2.78,6.21-4.31,2.93-2.22,4.98-5.17,7.15-8.07-.2-.38-.35-.66-.6-1.13-1.9.78-3.75,1.59-5.63,2.29-2.84,1.05-5.7,2.04-8.57,3.02-1.06.37-2.1.41-2.89-.83.53-2.45,1.07-4.98,1.61-7.5-1.65-1.42-3.3-1.15-4.73-.35-2.14,1.18-4.03,2.69-5.7,4.56-1.63,1.82-2.62,3.95-3.85,5.96-.89,1.45-1.6,3.06-2.08,4.69-.3,1.01-.51,2.23.46,3.6ZM16.46,469.33c.35,0,.68.07.96-.01,3.52-1.08,7.08-2.05,10.53-3.31,5.34-1.96,10.96-2.75,16.41-4.28,3.7-1.04,7.49-1.76,11.25-2.6,3.84-.86,7.65-1.91,11.54-2.5,5.42-.81,10.84-1.85,16.37-1.67.65.02,1.31-.1,1.95-.24,4.18-.9,8.45-.94,12.68-1.25,4.73-.34,9.49-.32,14.24-.45.9-.02,1.81-.06,2.71,0,3.99.24,7.97.62,11.97.74,2.61.08,5.12.73,7.79.62,4.24-.18,8.5.24,12.75.53,6.28.43,12.55.95,18.82,1.48,8.47.71,16.94,1.45,25.41,2.25.87.08,1.39,0,1.85-1-.55-.29-1-.67-1.49-.75-1.45-.23-2.93-.35-4.4-.49-6.5-.6-13.01-1.2-19.51-1.76-4.9-.43-9.8-.9-14.71-1.18-7.42-.43-14.79-1.51-22.25-1.4-6.97.11-13.91-.91-20.91-.63-7.52.3-15.06.22-22.56,1.04-4.89.53-9.79.96-14.67,1.51-3,.34-6.04.6-8.98,1.26-8.16,1.82-16.29,3.75-24.4,5.78-5.21,1.3-10.59,1.92-15.59,4.06-2.1.9-4.35,1.45-6.53,2.18-.92.31-1.59.82-1.21,2.09ZM166.3,369.97c-1.59,1.38-3.2,1.05-4.73,1-1.75-.06-3.39.14-5.07,1.36.81,1,1.42,2.13,2.35,2.84,3.15,2.41,6.68,4.31,10.61,4.85,5,.68,10.06,1.18,15.14.76.85-.07,1.69-.37,2.71-.61-.49-3.85-2.16-6.67-5.19-8.66-1.15-.76-2.46-1.27-3.57-2.07-2.97-2.16-6.01-4.2-9.44-5.55-1.57-.62-3.22-1.16-5.05-.58.21,2.42,2.22,4.22,2.23,6.66ZM272.74,124.53c-2.35.31-4.82.18-7.09,1.37-2.14,1.12-4.25.61-6.05-.7-2.64-1.92-5.44-1.54-8.24-.84-2.06.51-3.17,2.01-2.92,3.96.3,2.38,1.14,4.65,3.05,6.25,3.11,2.61,6.45,4.81,10.12,5.05,7.35-.88,11.53-4.94,14.01-10.89-.61-1.82-1.18-3.35-2.89-4.2ZM410.68,366.84c-.44.05-.89-.01-1.22.16-3.19,1.67-5.83,3.94-7.45,7.2-1.6,3.23-2.7,6.65-3.65,10.12-.62,2.28-.5,4.52-.08,6.77.14.74.62,1.42.95,2.14,1.33-.24,2.37-.45,3.41-.61,2.74-.42,5.18-1.52,7.31-3.28,1.32-1.09,2.67-2.19,3.81-3.46,1.08-1.2,2.13-2.54,2.79-3.99.84-1.84,1.26-3.87,1.87-5.81.28-.88.41-1.74-.25-2.42-3.96-.09-5.28,3.95-8.22,5.18-.99-.47-1.09-1.19-.92-1.95.54-2.46,1.06-4.93,1.73-7.35.24-.86.83-1.62-.09-2.7ZM435.12,267.26c-2.24,2.61-2.17,5.54-1.72,8.49.35,2.25.87,4.49,1.43,6.7.71,2.8,1.52,5.59,4.48,6.66,1.73,0,2.88-.9,3.77-1.94,3.18-3.71,6.38-7.41,9.32-11.31,1.54-2.04,2.84-4.4,2.39-7.16-1.02-.76-1.93-.57-2.9-.2-2.56.99-4.7,2.6-6.76,4.35-.54.46-1.12.89-1.86,1.47-.71-.58-1.44-.97-1.89-1.57-.63-.84-.98-1.87-1.57-2.74-.72-1.05-1.57-2.02-2.3-2.94-.94.08-1.59.14-2.4.21ZM157.03,389.19c.22-.48.5-.83.53-1.21.22-2.57-.02-5.08-1.17-7.44-.89-1.83-1.76-3.67-2.68-5.49-.33-.65-.69-1.3-1.17-1.83-1.27-1.38-2.52-2.81-3.95-4-1.72-1.44-3.16-3.4-5.92-3.73-.45.43-1,.95-1.53,1.44,1.8,3.62,5.14,6.08,5.78,10.41-1.15.17-2.1.5-3.01.4-1.02-.12-1.98-.68-2.99-.96-1.44-.4-2.88-1.39-4.4-.17-.98,2.76-.81,3.48,1.28,5.36.54.49,1.1.99,1.71,1.38,2.13,1.35,4.34,2.59,6.44,3.99,3.44,2.28,7.18,2.36,11.08,1.85ZM402.36,353.09c-2.25-1.31-4.29-.34-5.85,1.02-1.89,1.64-4.29,2.76-5.61,5.05-.19.34-.6.55-.88.84-.59.65-1.31,1.25-1.72,2-1.18,2.14-2.28,4.33-3.33,6.54-.42.89-.72,1.88.63,2.95.69,0,1.77.18,2.77-.03,2.78-.59,5.6-1.17,8.28-2.09,3.54-1.22,6.92-2.76,10.04-4.96,2.37-1.67,3.5-3.76,3.9-6.43.06-.42-.14-.88-.21-1.24-1.83-.6-2.93.66-4.22,1.23-1.44.64-2.85,1.22-4.26.55-1.28-2.01.74-3.55.44-5.43ZM343.87,378.28c.5.59.8,1.3,1.31,1.5,1.75.68,3.53,1.36,5.5.94.96-.2,1.96-.23,2.94-.29,5.6-.37,10.97-1.57,16.24-3.57,3.19-1.21,5.48-3.15,7.17-5.97.21-.36.26-.81.51-1.68-1.25.41-2.11.61-2.91.96-4.74,2.09-9.67,3.56-14.78,4.42-1.14.19-2.11.32-2.74-.88-.29-1.42.73-2.26,1.39-3.27.96-1.46,2.47-2.68,2.27-4.81-1.83-.31-3.52-.2-5.25.64-5.25,2.54-8.74,6.72-11.66,12.02ZM132.69,305.31c.18-1.79.41-3.08.43-4.37.03-3.07-1-5.93-1.88-8.83-.82-2.69-2.47-4.77-4.49-6.59-.95-.85-2.1-1.64-3.85-.73-.08.88-.3,1.9-.23,2.91.08,1.3.38,2.59.62,3.88.19,1.06.38,2.11-.36,3.12-2.71,1.77-5.68-.1-8.54.27-.39,1.3-.63,2.46.22,3.42,1.24,1.4,2.4,3,3.94,3.97,3.14,1.98,6.67,3.12,10.41,3.34,1.17.07,2.37-.25,3.73-.41ZM380.45,378.51c-1.15,1.95-2.31,3.82-3.36,5.74-1.97,3.63-2.47,7.57-2.13,11.62.07.8.68,1.55,1.1,2.47,1.53-.22,2.86-.25,4.08-.63,2.41-.77,4.73-1.84,7.14-2.6,3.17-1,4.89-3.38,6.36-6.1.93-1.72,1.36-3.5.85-5.55-.43-.35-.93-.74-1.42-1.14-1.75.43-3.06,1.2-4.02,2.71-.64,1.01-1.61,1.86-2.55,2.63-.49.41-1.24.5-1.7.68-1.1-.79-1.31-1.6-1.2-2.58.23-2.11.4-4.23.59-6.34.06-.73.21-1.5-.93-2.16-.73.33-1.67.75-2.83,1.26ZM391.17,300.43c-.49-1.63-1.51-1.78-2.49-1.53-2.95.76-5.83,1.71-7.83,4.23-1.73,2.18-3.39,4.42-5.14,6.57-1.59,1.95-2.26,4.32-3.11,6.6-.23.61-.04,1.39-.04,2.04,8.73,1.55,16.01-2.37,18.88-9.88-1.03-.3-2.06-.6-3.29-.97,1.08-2.54,2.07-4.85,3.02-7.07ZM125.51,323.2c-.21-1.25-.15-2.13-.51-2.77-1.81-3.16-2.52-6.95-5.44-9.48-.41-.36-.6-.97-.91-1.46-.48-.75-.9-1.55-1.46-2.24-1.95-2.39-4.46-4.03-7.41-5.41-.46.18-1.03.42-1.72.69.23.6.31,1.12.59,1.46,1.14,1.39,2.29,2.78,3.54,4.07,1.09,1.13,2.13,2.23,2.31,4-.38.2-.72.53-1.05.53-1.22,0-2.5.08-3.66-.22-2.36-.63-4.68-1.44-6.98-2.27-.97-.35-1.87-.49-2.93-.08v1.36c3.21,3.52,7.09,5.64,10.93,7.79,1.7.95,3.52,1.75,5.36,2.39,2.16.75,4.39,1.32,6.63,1.83.72.16,1.53-.1,2.72-.2ZM108.39,373.54c1.04,1,1.9,2,2.93,2.78,5.16,3.94,11.05,6.33,17.27,7.96,1.23.32,2.37-.3,2.73-1.51.22-.75.31-1.64.15-2.39-.52-2.38-1.09-4.77-1.82-7.09-1.01-3.19-3.1-5.73-5.43-8.04-1.23-1.22-2.85-1.09-4.13.2.98,2.65,2.23,5.35,1.83,8.67-.71.06-1.43.27-2.08.13-.95-.2-1.86-.61-2.75-1.01-1.57-.69-3.09-1.49-4.68-2.14-1-.41-2.07-.52-3.33.35-.16.5-.41,1.24-.68,2.08ZM105.27,335.64c.29.79.55,1.52.84,2.25.61,1.52,1.24,3.03,1.85,4.55.43,1.07.52,2.08-.61,2.76-2.38.53-4.65-1.25-7.21-.17.54,1.5.24,3.2,1.49,4.38,1.36,1.27,2.79,2.49,4.23,3.67,3.04,2.5,6.81,3.48,10.4,4.81.93.35,2.02.27,2.94.38,1.5-2.33.41-4.45-.06-6.39-.85-3.51-3.11-6.44-5.17-9.34-1.59-2.24-3.7-4.13-5.66-6.09-.7-.71-1.55-1.5-3.04-.81ZM273.94,371.59c-1.34-.95-2.39-.62-3.42-.47-1.86.28-3.72.52-5.56.89-4.44.9-8.82.03-13.2-.4-3.02-.29-6-.94-9-1.39-.48-.07-1,.05-1.57.08,1.37,4.07,8.37,9.36,14.91,9.5,7.17.16,13.3-2.04,17.84-8.22ZM433.29,344.31c-1.89-1.04-1.9-1.07-3.67-.85-1.53.19-2.92-.04-4.3-1.1.18-1.9.36-3.82.54-5.63-1.81-.96-2.19-.97-3.45.18-3.39,3.09-5.01,7.21-6.15,11.47-.41,1.53-.19,3.41,1.12,4.86h2.91c2.51-1.3,4.85-2.3,6.97-3.66,2.19-1.4,4.27-3.03,6.03-5.27ZM441.53,370.84c-1-.52-1.31.2-1.77.62-1.2,1.1-2.44,2.16-3.59,3.3-1.63,1.61-3.33,3.18-4.77,4.95-2.41,2.98-4.92,5.65-9.12,5.8-.88.03-1.74.36-2.42.51-1.72,1.84-1.77,3.65-.63,5.77.62.08,1.41.41,2,.2,3.49-1.23,7.47-1.55,9.84-5.02.18-.26.48-.44.75-.63,4.02-2.88,6.76-6.8,8.83-11.21.64-1.36,1.03-2.84.87-4.3ZM411.21,333.22c-1.05-.97-.16-2.86-2.06-3.41-.43.38-.94.76-1.36,1.22-2.87,3.15-3.64,7.26-4.94,11.11-.33.98.02,1.95,1.01,2.44,1.61.44,3,.05,4.29-.78,2.28-1.46,4.53-2.96,6.83-4.4,3.38-2.12,4.91-5.23,5.2-9.13-1.01-.43-1.53.12-2.09.58-.95.78-1.86,1.63-2.9,2.27-1.22.74-2.56,1.21-3.97.11ZM237.31,63.02c-2.82-3.24-6.48-5.23-10.17-7.41-1.71,1.94-3.62.98-5.6.44-.13.83-.23,1.53-.33,2.18-.47.35-.87.63-1.05.77h-4.18c-1.14-.86-2.45-1.34-4.47-1.31,2.1,1.33,3.77,2.41,5.46,3.45.62.38,1.28.74,1.96,1.01,2.05.81,4.11,1.6,6.19,2.32.99.34,2.04.53,3.08.69,1.13.18,2.27.33,3.4.33,1.52,0,3.1.62,4.71-.54.24-.46.58-1.1,1.01-1.92ZM88.63,317.83c-.53.93-.31,1.79.28,2.52.62.76,1.29,1.5,2.06,2.1,2.13,1.65,4.32,3.22,6.5,4.81,1.25.91,2.39,2.05,4.02,2.25.56.07,1.16-.13,1.67-.2.37-5.94-2.57-12.51-6.5-14.52.53,1.97,2.89,3.6.81,5.86-2.95-.93-5.53-2.98-8.85-2.82ZM101.54,397.95c.26.59.4,1.12.7,1.53.96,1.33,2.12,2.52,2.94,3.92,2.11,3.59,5.12,5.6,9.3,5.81.41.02.8.14,1.21.2,1.42.2,2.56-.22,3.42-1.61-.36-.77-.73-1.57-1.05-2.25-.51-.28-.86-.49-1.22-.68-3.51-1.87-7.25-3.28-10.46-5.77-1.2-.93-2.88-1.46-4.84-1.14ZM261.25,79.38c-1.16,1.44-2.48,2.38-3.06,4.17-1.39,4.25-.81,8.38-.01,12.56.44.21.79.38,1.33.64.4-1.05.73-1.94,1.15-3.05.85.13,1.68.27,2.65.42,1.71-3.19.88-6.56.41-9.81-.24-1.69-.54-3.6-2.47-4.93ZM84.62,255.49c-.56,1.57-.3,2.96.29,4.36.78,1.87,1.48,3.78,2.18,5.69.97,2.67,2.08,3.58,4.65,3.62.51-.35,1.12-.75,1.92-1.29,0-.65.05-1.36,0-2.08-.17-2.22-.92-4.25-1.83-6.28-1.3-2.91-3.91-4.56-7.2-4.02ZM419.62,396.82c-1.12-.36-1.93-.17-2.63.57-2.22,2.39-4.54,4.69-6.63,7.18-.83.99-1.56,2.29-1.32,3.82.35.17.65.47.92.44,2.14-.21,4.41-.58,5.86-2.16,1.91-2.08,3.8-4.3,4.58-7.19-.14-.65-.26-1.29-.42-1.92-.06-.23-.21-.43-.36-.75ZM430.93,194.69c4.43-1.59,6.47-5.66,5.41-10.33-1.3-1.3-2.88-.61-5.01-.62-.72.76-1.72,1.81-2.31,2.44-.64,3.61-.05,6.18,1.92,8.52ZM461.66,284.71c-1.29-.09-2.33-.18-3.38-.22-2.33-.08-4.37,1.81-4.03,4.76.31,2.64,2.85,4.4,5.57,3.81.84-1.76,1.72-3.6,2.66-5.56-.23-.79-.48-1.64-.82-2.79ZM425.7,204.11c-2.94-2.2-5.76-3.34-8.92-3.57-1.07-.08-2.12.16-2.9,1.41.22.85.49,1.84.79,2.98,3.66,1,7.23,1.9,11.03-.82ZM107.13,197.42c2.95-1.02,3.42-1.66,3.5-5.31-.34-.33-1.03-1-1.42-1.37-2.97.09-7.13,1.89-7.35,3.07.22.55.49,1.22.8,2,1.43.52,2.88,1.04,4.46,1.61ZM267.15,118.42c-.2-.18-.31-.32-.45-.39-3-1.52-6.26-.88-9.41-1.1-.64-.05-1.34.73-2.03,1.13.35.75.59,1.26.77,1.64,1.62.46,3.18.75,4.59,1.36,1.84.79,3.55.44,5.26-.19,1-.37,1.62-1.12,1.27-2.46ZM426.18,267.19c-.23-.69-.46-1.36-.68-2.04-.92-.15-1.72-.27-2.33-.37-2.09.82-3.56,2.02-4.55,3.78,2.46,2.7,4.92,2.29,7.56-1.38ZM246.76,163.09c.49.27.95.51,1.45.78,1.37-1.36,2.65-2.64,4.39-4.36-1.37-.18-2.09-.27-2.75-.36-1.06,1.36-2.8,1.82-3.09,3.94ZM456.76,171.12c1.06.76,1.99,1.43,3.02,2.17.68-.59,1.19-1.04,1.66-1.45-.65-1.78-1.89-2.31-3.59-2.46-.32.51-.64,1.02-1.08,1.74ZM318.54,50.4c.12.14.23.28.35.42,1.94-1.05,4.02-1.95,5.11-4.05-1.01-1.15-1.78-.58-2.32-.02-1.12,1.15-2.1,2.42-3.14,3.65ZM269.36,160.73c.96,1.53,1.95,2.57,3.68,2.48.32-1.35-.57-1.92-1.53-2.65-.64.05-1.39.11-2.15.17Z"/>
    <path class="st0" d="M172.64,410.86c.7,2.09,1.41,4.18,2.1,6.27.69,2.1,1.35,4.2,2.12,6.59-1.27.48-2.51.94-4.03,1.51-2.22-6.76-4.36-13.26-6.55-19.95.87-.33,1.52-.61,2.2-.82.7-.22,1.42-.37,2.34-.61,3.69,3.29,7.41,6.62,11.12,9.94-.56-4.36-2.26-8.3-3.38-12.6,1.23-.41,2.52-.84,3.96-1.32,2.23,6.74,4.38,13.24,6.62,19.98-1.56.5-2.86.92-4.37,1.4-3.94-3.56-7.87-7.11-11.79-10.66-.12.09-.23.19-.35.28Z"/>
    <path class="st0" d="M342.54,404.66c-.3,6.08-1.85,9.64-5.07,12.43-1.6,1.39-3.58,1.71-5.52,1.7-2.86-.03-5.41-1.11-7.57-3.08-1.61-1.47-2.52-3.31-2.7-5.38-.37-4.3,1.07-8.09,4-11.21,2.05-2.18,4.75-2.79,7.68-2.42,5.57.71,9.41,4.95,9.17,7.96ZM326.11,410.64c.31.57.58,1.27,1.02,1.84,1.7,2.17,4.04,2.87,6.74,1.52,3.01-1.5,4.84-6.96,3.64-10.09-.9-2.34-2.75-3.05-4.92-3.3-3.84.21-6.37,4.5-6.48,10.03Z"/>
    <path class="st0" d="M306.11,391.95c-.15,1.51-.27,2.63-.4,3.89-3.6-.2-7.08-.39-10.81-.59-.1,1.18-.21,2.36-.34,3.79,3.2.99,6.64.14,10.05,1.24-.12,1.06-.24,2.21-.38,3.47-3.37-.19-6.51-.37-9.81-.55-.17,1.68-.33,3.28-.51,5.06,3.89.29,7.53.56,11.46.85-.07,1.22-.14,2.39-.23,3.81-5.36-.36-10.54-.71-15.93-1.07.27-3.53.55-6.99.79-10.45.23-3.41.42-6.83.63-10.44,5.12.33,10.12.65,15.47.99Z"/>
    <path class="st0" d="M203.14,399.78c-1.4.5-2.62.93-3.94,1.4-.52-.49-1.04-.99-1.57-1.48-1.53-.65-2.99-.55-4.47.28-1.77.99-1.97,1.38-1.36,3.52,1.01.93,2.13.9,3.44.71,2.1-.31,4.24-.44,6.36-.42,4.87.04,6.21,6.43,4.09,9.37-1,1.39-2.31,2.43-3.81,3.01-1.65.64-3.47,1.02-5.25,1.13-3.56.22-5.32-1.06-6.82-4.66,1.32-.4,2.62-.8,3.89-1.19,2.51,2.84,5.94,2.54,8.68-.84-.05-.49-.11-1.12-.16-1.6-1.16-1.09-2.41-.87-3.62-.8-1.88.1-3.77.33-5.65.33-2.84,0-4.5-1.27-5.33-3.84-.95-2.95-.27-5.43,1.91-7.06,2.11-1.58,4.59-2.29,7.12-2.41,2.99-.15,5.09,1.49,6.47,4.56Z"/>
    <path class="st0" d="M251.94,388.33c1.71.17,2.99.3,4.38.44,0,1.84.07,3.54-.02,5.23-.14,2.7-.3,5.41-.62,8.09-.35,3.04,1.8,4.85,4.41,4.38.32-.06.66-.06,1.06-.09,2.52-1.11,2.19-3.5,2.36-5.63.3-3.71.52-7.43.77-11.11q2.14-.5,4.43.2c0,.94.04,1.91,0,2.87-.17,3.2-.35,6.39-.58,9.58-.19,2.67-.77,5.2-3.08,7.03-2.91,1.21-5.89,1.7-9.04.62-3.38-1.16-5.11-3.44-4.97-7.02.14-3.58.42-7.15.64-10.73.07-1.19.16-2.38.26-3.86Z"/>
    <path class="st0" d="M362.31,407.64c-.53,1.37-.94,2.43-1.43,3.72-3.17-1.18-6.27-2.34-9.55-3.57-.38.81-.71,1.44-.98,2.09-.24.59-.41,1.21-.66,1.98,2.82,1.09,5.54,2.15,8.47,3.28-.44,1.16-.83,2.2-1.33,3.51-2.86-1.01-5.6-1.98-8.49-3-1.04,2.66-2.04,5.22-3.13,8.01-1.42-.51-2.62-.93-4.12-1.47,2.19-6.66,4.78-12.99,7.17-19.72,4.66,1.72,9.23,3.4,14.06,5.17Z"/>
    <path class="st0" d="M241.18,393.19c.68,5.8,1.31,11.22,1.97,16.84-1.5.19-2.77.35-4.35.54-1.04-5.63-1.32-11.23-2.23-16.8-2,.2-3.9.39-6.11.61-.17-1.25-.34-2.49-.52-3.83,5.62-.68,11.09-1.35,16.84-2.05.14,1.37.27,2.54.4,3.8-2.13.32-4.04.6-6,.89Z"/>
    <path class="st0" d="M211.02,396.94c-2.2.15-4.05.28-5.98.41-.79-1.07-.34-2.34-.63-3.69,5.6-.69,11.08-1.37,16.75-2.07.22,1.31.41,2.46.64,3.88-2.1.29-3.94.55-5.9.82-.08.2-.34.51-.31.79.32,2.66.7,5.32,1.03,7.98.32,2.66.6,5.32.91,8.19-1.61.11-2.9.2-4.43.3-.69-5.54-1.37-10.95-2.08-16.62Z"/>
    <path class="st0" d="M288.17,390.83c-.06,1.32-.11,2.43-.18,3.8-2.04-.12-3.97-.24-6.2-.37-.42,5.72-.83,11.3-1.26,17.06-1.55-.1-2.9-.19-4.44-.29.35-5.72.68-11.19,1.03-16.9-2.05-.22-4.03-.43-6.18-.65.09-1.31.16-2.41.26-3.79,5.65.38,11.2.76,16.97,1.15Z"/>
    <path class="st0" d="M225.87,412.4c-.87-7.13-1.71-13.94-2.57-21.01,1.51-.17,2.91-.33,4.56-.52.86,7.04,1.7,13.83,2.55,20.8-1.61.26-2.95.48-4.54.74Z"/>
    <path class="st0" d="M162.46,406.46c.3.4.63.69.75,1.05,2.07,6.27,4.1,12.55,6.18,18.92-1.42.49-2.71.93-4.28,1.47-2.2-6.66-4.37-13.22-6.63-20.05,1.38-.48,2.63-.91,3.97-1.38Z"/>
    <path class="st0" d="M109.65,427.13c.16,2.24.33,4.48.49,6.72.16,2.26.32,4.52.49,6.97-1.36.11-2.56.21-4.04.33-.86-7.02-1.18-13.91-1.81-20.93,1.61-.12,2.98-.23,4.68-.36,2.88,4.15,5.82,8.4,8.77,12.65.14-.06.28-.12.42-.18-.35-4.33-.7-8.65-1.07-13.18,1.55-.11,2.81-.2,4.25-.3.6,6.96,1.18,13.72,1.78,20.76-1.56.22-2.97.42-4.5.64-3.1-4.5-6.11-8.86-9.12-13.22-.11.04-.23.07-.34.11Z"/>
    <path class="st0" d="M33.58,431.91c1.64-.36,3.06-.67,4.68-1.03,1.65,1.89,3.3,3.8,4.97,5.69,1.65,1.87,3.32,3.72,4.99,5.58.16-.08.33-.17.49-.25-.82-4.11-1.63-8.21-2.49-12.53,1.42-.38,2.65-.71,4.14-1.12,1.41,6.88,2.8,13.65,4.23,20.61-1.57.36-2.89.66-4.38,1-3.56-4.02-7.13-8.05-11.1-12.54,1.01,5.02,1.9,9.46,2.83,14.08-1.28.33-2.44.62-3.79.97-1.66-3.2-1.45-6.83-2.43-10.16-.97-3.29-1.41-6.73-2.13-10.32Z"/>
    <path class="st0" d="M58.53,448.13c-1.44-6.93-2.83-13.63-4.29-20.66,3.49-.64,6.85-1.14,10.16-1.89,2.44-.55,4.44.28,6.08,1.77,3.79,3.45,5,11.66,1.95,15.87-.9,1.25-1.99,2.27-3.43,2.63-3.39.84-6.83,1.5-10.47,2.27ZM62.14,443.52c2.18-.54,4.06-1,5.72-1.41,2.6-4.15,2.26-7.63-1.03-12.05-2.37-1.23-4.68,0-7.36.34.89,4.37,1.75,8.58,2.68,13.12Z"/>
    <path class="st0" d="M104.16,441.34c-1.95.14-3.45.24-4.99.35-.59-1.4-1.09-2.6-1.67-4-2.4.13-4.89.16-7.36.79-.4,1.38-.77,2.62-1.19,4.04-1.43.16-2.85.31-4.4.48,0-.74-.1-1.23.02-1.67,1.78-6.62,3.58-13.23,5.38-19.82,1.73-.16,3.27-.3,5.08-.47,3.17,6.49,5.88,13.28,9.14,20.28ZM93.22,426.97c-.18.04-.35.07-.53.11-.52,2.32-1.03,4.64-1.55,6.99q2.83.17,4.47-.54c-.79-2.17-1.59-4.36-2.38-6.55Z"/>
    <path class="st0" d="M75.75,422.56c1.61-.08,2.81-.14,4.27-.21.98,3.37.71,6.91,1.18,10.34.46,3.38.52,6.81.77,10.44-.8.12-1.41.24-2.03.28-.65.04-1.31.01-2.3.01-.16-.88-.43-1.88-.52-2.89-.48-5.21-.92-10.43-1.36-15.65-.06-.71,0-1.43,0-2.32Z"/>
    <path class="st0" d="M34.29,453.16c-1.69.36-2.95.62-4.48.95-1.43-6.92-2.84-13.67-4.28-20.63,1.63-.32,2.96-.59,4.5-.89,1.43,6.9,2.81,13.59,4.26,20.58Z"/>
    <path class="st0" d="M458.99,450.11c-1.39-.22-2.81-.44-4.31-.67-1.66-5.05-3.29-10-4.92-14.94-1.56,4.23-2.11,8.65-3.32,13.13-1.28-.24-2.46-.46-3.9-.74.93-6.97,2.89-13.65,4.09-20.66,1.62.36,3.05.67,4.67,1.03,1.59,4.95,3.19,9.9,4.95,15.37,1.07-4.77,2.03-9.08,3.03-13.57,1.41.22,2.61.41,3.77.59.15,2.02-1.88,12.14-4.07,20.46Z"/>
    <path class="st0" d="M497.16,452.03c-3.38-1.06-6.41-2.01-9.61-3.02-.53,1.54-1.03,2.99-1.58,4.59,1.69,1.13,3.67,1.32,5.47,1.96,1.76.63,3.55,1.16,5.55,1.8-.46,1.28-.86,2.39-1.34,3.7-5.06-1.59-9.95-3.12-15.14-4.75,2.14-6.78,4.21-13.37,6.33-20.09,4.98,1.57,9.72,3.05,14.53,4.57,0,.38.07.71-.01,1-.25.86-.57,1.7-.93,2.76-3.47-1.04-6.88-2.05-10.44-3.12-.44,1.24-.84,2.35-1.33,3.73,3.2,1.03,6.28,2.02,9.64,3.1-.39,1.28-.73,2.41-1.14,3.76Z"/>
    <path class="st0" d="M443.07,425.51c-.28,1.37-.5,2.47-.78,3.85-3.6-.73-7.1-1.43-10.76-2.16-.28,1.31-.54,2.49-.84,3.9,3.22.7,6.38,1.39,9.79,2.13-.24,1.3-.46,2.46-.71,3.77-3.36-.66-6.52-1.28-9.85-1.93-.4,1.68-.75,3.17-1.15,4.87,3.74.83,7.39,1.64,11.29,2.5-.3,1.29-.56,2.43-.87,3.78-5.28-1.1-10.29-2.16-15.59-3.26,1.42-6.87,2.8-13.55,4.23-20.42,5.28.69,10.12,2.09,15.22,2.97Z"/>
    <path class="st0" d="M394.3,428.09h-4.09c-2.1-3.52-4.92-4.02-7.99-1.25.14.64.3,1.4.46,2.12,2.82.74,5.42,1.45,8.03,2.09,2.53.63,4.26,1.79,4.42,5.11.15,3.02-1.49,5.51-4.31,6.41-2.52.8-5.12,1.08-7.75.38-2.93-.78-5.08-2.96-5.1-6.29,1.28-.58,2.62-.34,3.95-.15.45.75.87,1.44,1.31,2.17.77.29,1.53.59,2.35.9,1.5-.24,3.01-.48,4.57-.73.26-.92.45-1.61.63-2.24-1.21-2.01-3.25-1.93-5.02-2.43-1.73-.49-3.56-.78-5.14-1.58-3.67-1.87-3.67-7.12-.12-9.25,1.91-1.15,3.82-2.16,6.17-2.12,1.89.03,3.55.64,5.08,1.66,1.78,1.2,2.25,3.04,2.54,5.19Z"/>
    <path class="st0" d="M481.45,441.88c-1.26-.34-2.36-.65-3.6-.99-.5-1.53-.63-3.36-2.48-4.51-1.04-.36-2.23-.97-3.75-.53-3.52,1.01-6.33,8.05-4.08,11.74,1.45,2.39,5.39,2.74,6.76.71.32-.48.68-.93.97-1.32,1.34.39,2.37.67,3.38,1,.3.09.56.32.83.48-2.02,4.37-6.1,6.2-10.69,4.83-4.85-1.45-7.43-5.79-6.64-10.55.49-2.96,1.46-5.7,3.42-8.03,4.37-5.23,12.49-3.23,15.45,1.48.92,1.46,1.12,4.14.44,5.69Z"/>
    <path class="st0" d="M411.09,428.4c-.62-1.07-1.15-1.99-1.66-2.87-.62-.22-1.15-.46-1.7-.61-2.65-.7-4.75.32-5.76,2.88-.96,2.42-1.31,4.9-.37,7.43.97,2.61,2.69,3.67,5.3,3.41,1.15-.12,2.04-.6,2.68-1.53.41-.6.76-1.25,1.13-1.86h4.27c-.27,3.06-1.88,5.11-4.24,6.41-3.97,2.19-11.19,1.76-13.44-4.84-1.41-4.15-1.37-8.61,1.35-12.54,1.56-2.26,3.77-3.28,6.47-3.47,3.1-.23,5.86.35,8.11,2.66,1.35,1.39,2.02,3.01,2.07,5.17-1.57-.09-2.93-.17-4.21-.24Z"/>
    <path class="st0" d="M418.59,421.63c1.41.08,2.68.16,4.28.25-.21,6.96-.42,13.89-.63,20.89h-4.04c-.61-1.72-.35-15.29.39-21.14Z"/>
    <path class="st0" d="M99.21,245.5c-1.79.22-2.49-.64-3.09-1.51-2.44-3.48-4.79-7.02-7.26-10.47-1.09-1.52-2.42-2.86-3.57-4.34-1.25-1.61-2.42-3.27-3.59-4.94-.21-.3-.22-.74-.33-1.13.89-.52,1.51-.39,2.32.1,2.72,1.65,4.74,4.04,6.63,6.46,2.81,3.59,5.28,7.44,7.9,11.18.46.66.93,1.32,1.59,2.26-.17.66-.39,1.56-.6,2.39Z"/>
    <path class="st0" d="M431.71,326.35c-1.62-.94-3.54-1.53-4.75-3.24-.25-.36-.8-.51-1.2-.78-1.34-.93-2.57-1.91-3.67-3.18-1.53-1.78-3.54-3.14-5.26-4.77-2.06-1.96-4.06-4-6.02-6.06-.46-.49-.66-1.23-.99-1.88.48-.66.85-1.17,1.21-1.65.35,0,.65-.09.82.02.62.38,1.31.73,1.78,1.25,1.69,1.87,3.69,3.39,5.34,5.35,1.87,2.22,4.43,3.86,6.71,5.73,2.27,1.87,4.59,3.68,6.81,5.6.72.62,1.21,1.51,1.77,2.23q-.94,1.17-2.55,1.39Z"/>
    <path class="st0" d="M443.67,235.75c-1.12,1.57-2.92,1.86-4.36,2.68-2.84,1.6-5.8,3-8.61,4.65-1.09.64-2.06,1.64-2.83,2.67-1.17,1.55-2.75,2.5-4.29,3.6-.59-.24-1.1-.46-1.8-.75.18-.6.18-1.28.51-1.59,2.04-1.88,4.06-3.81,6.28-5.47,2.01-1.51,4.23-2.76,6.43-4,1.84-1.04,3.75-1.98,5.71-2.78.96-.39,2.11-.45,2.96.98Z"/>
    <path class="st0" d="M96.84,299.68c-.15,2.53-1.83,3.82-3.53,5.29-1.65,1.43-3.29,2.64-5.76,2.96-.32-.17-.88-.46-1.42-.75-.03-.33-.15-.64-.05-.8.42-.67.79-1.46,1.39-1.92,2.08-1.58,4.25-3.03,6.38-4.53.85-.6,1.72-.95,2.99-.25Z"/>
    <path class="st0" d="M270.78,50.79c-.41-.25-.74-.46-1.02-.63-.27-1.48.06-2.69.67-3.9,1.68-3.35,3.43-6.68,4.92-10.12.84-1.93,1.32-4.03,1.81-6.08.76-3.16,1.38-6.34,2.05-9.46,1.87-.21,2.36-.09,2.54,1.16.24,1.68.46,3.48.13,5.11-.61,3-1.69,5.9-2.48,8.87-1.01,3.82-3.23,7.06-4.98,10.52-.84,1.67-1.9,3.41-3.66,4.53Z"/>
    <path class="st0" d="M253.46,50.76c-2.26-.34-2.71-2.2-3.55-3.47-1.26-1.89-2.25-4-3.07-6.13-1.19-3.09-2.45-6.19-2.45-9.62,0-3.02-.22-6.05-.25-9.08,0-.79.24-1.65.61-2.34.25-.46.93-.68,1.4-1,1.35,1.21,1.21,2.55,1.27,3.85.09,1.95-.17,4.03.43,5.82.83,2.46.88,4.97,1.35,7.44.44,2.3,1.38,4.51,2.14,6.75.76,2.24,1.59,4.46,2.34,6.7.08.25-.12.6-.24,1.07Z"/>
  </g>
  <g>
    <g>
      <path class="st1" d="M633.69,294.98h-8.11V76.23h8.11v218.75Z"/>
      <path class="st1" d="M713.92,294.98h-8.11V76.23h8.11v218.75Z"/>
      <path class="st1" d="M911.03,242.54c0-9.31-2.18-17.2-6.54-23.66-4.36-6.46-11.22-12.17-20.58-17.13-9.37-4.96-23.51-10.04-42.44-15.25-18.93-5.21-33.13-10.46-42.59-15.77-9.46-5.31-16.4-11.47-20.81-18.48-4.41-7.01-6.61-15.52-6.61-25.54,0-15.93,6.71-28.82,20.13-38.69,13.42-9.86,30.9-14.8,52.43-14.8,14.02,0,26.62,2.73,37.79,8.19,11.17,5.46,19.81,13.12,25.92,22.99,6.11,9.87,9.17,21.01,9.17,33.43h-8.11c0-16.32-6.01-29.82-18.03-40.49-12.02-10.67-27.59-16-46.72-16s-34.78,4.28-46.65,12.85c-11.87,8.56-17.8,19.31-17.8,32.23s5.16,23.69,15.47,31.7c10.32,8.01,27.34,15.1,51.08,21.26s41.11,13.3,52.13,21.41c14.02,10.32,21.03,24.14,21.03,41.47,0,11.02-3.11,20.76-9.31,29.22-6.21,8.47-15.02,15-26.44,19.61s-24.24,6.91-38.46,6.91c-15.83,0-30.05-2.63-42.67-7.89-12.62-5.26-22.11-12.74-28.47-22.46-6.36-9.71-9.54-21.18-9.54-34.4h8.11c0,17.93,6.71,31.85,20.13,41.77,13.42,9.92,30.9,14.87,52.43,14.87,19.13,0,34.9-4.38,47.33-13.15,12.42-8.76,18.63-20.16,18.63-34.18Z"/>
      <path class="st1" d="M1012.9,289.87c14.72,0,26.87-3.91,36.43-11.72,9.56-7.81,14.8-18.63,15.7-32.45h8.11c-.8,15.73-6.86,28.37-18.18,37.94-11.32,9.57-25.34,14.35-42.07,14.35-20.33,0-36.48-7.36-48.45-22.08-11.97-14.72-17.95-34.71-17.95-59.95v-5.41c0-24.64,5.98-44.32,17.95-59.04,11.97-14.72,28.02-22.08,48.15-22.08,17.23,0,31.45,5.16,42.67,15.47,11.22,10.32,17.18,24.04,17.88,41.17h-8.11c-.7-14.62-5.84-26.37-15.4-35.23-9.57-8.86-21.91-13.3-37.03-13.3-18.13,0-32.33,6.54-42.59,19.61-10.27,13.07-15.4,31.23-15.4,54.46v5.26c0,22.74,5.18,40.59,15.55,53.56,10.37,12.97,24.61,19.46,42.74,19.46Z"/>
    </g>
    <g>
      <path class="st1" d="M622.92,418.53v-74.57h22.02c7.99,0,14.05,1.65,18.18,4.95,4.13,3.3,6.2,8.16,6.2,14.58,0,3.86-1.05,7.22-3.15,10.07-2.1,2.85-4.98,4.89-8.63,6.12,4.34.96,7.83,3.09,10.47,6.4,2.65,3.31,3.97,7.13,3.97,11.47,0,6.59-2.12,11.73-6.38,15.43-4.25,3.7-10.17,5.55-17.75,5.55h-24.94ZM629.22,377.4h17.21c5.26-.1,9.33-1.34,12.22-3.72,2.88-2.38,4.33-5.84,4.33-10.39,0-4.79-1.49-8.32-4.48-10.6-2.99-2.27-7.5-3.41-13.55-3.41h-15.72v28.12ZM629.22,382.73v30.47h18.9c5.39,0,9.67-1.37,12.83-4.12s4.74-6.55,4.74-11.43c0-4.6-1.51-8.24-4.53-10.92-3.02-2.68-7.2-4.01-12.52-4.01h-19.41Z"/>
      <path class="st1" d="M721.38,418.53c-.61-1.74-1.01-4.32-1.18-7.73-2.15,2.8-4.89,4.96-8.22,6.48s-6.86,2.28-10.58,2.28c-5.33,0-9.64-1.49-12.93-4.46-3.3-2.97-4.94-6.73-4.94-11.27,0-5.39,2.24-9.66,6.73-12.8,4.49-3.14,10.75-4.71,18.77-4.71h11.11v-6.3c0-3.96-1.22-7.08-3.66-9.35-2.44-2.27-6-3.41-10.68-3.41-4.27,0-7.8,1.09-10.6,3.28-2.8,2.19-4.2,4.81-4.2,7.89l-6.15-.05c0-4.41,2.05-8.22,6.15-11.45s9.13-4.84,15.11-4.84,11.05,1.54,14.62,4.63c3.57,3.09,5.4,7.4,5.51,12.93v26.22c0,5.36.56,9.37,1.69,12.04v.61h-6.56ZM702.12,414.13c4.1,0,7.76-.99,10.99-2.97s5.57-4.63,7.04-7.94v-12.19h-10.96c-6.11.07-10.89,1.19-14.34,3.35-3.45,2.17-5.17,5.15-5.17,8.94,0,3.11,1.15,5.69,3.46,7.73,2.31,2.05,5.3,3.07,8.99,3.07Z"/>
      <path class="st1" d="M749.05,363.11l.2,9.48c2.08-3.41,4.68-6.02,7.79-7.81s6.54-2.69,10.29-2.69c5.94,0,10.36,1.67,13.27,5.02,2.9,3.35,4.37,8.37,4.4,15.06v36.36h-6.09v-36.42c-.03-4.95-1.08-8.64-3.15-11.06-2.07-2.42-5.37-3.64-9.91-3.64-3.79,0-7.14,1.19-10.06,3.56-2.92,2.37-5.08,5.58-6.48,9.6v37.95h-6.09v-55.42h5.84Z"/>
      <path class="st1" d="M799,390.31c0-8.67,1.92-15.54,5.76-20.62,3.84-5.07,9.06-7.61,15.65-7.61,7.55,0,13.28,3,17.21,9.01l.31-7.99h5.74v54.29c0,7.14-2,12.79-5.99,16.95-4,4.17-9.41,6.25-16.24,6.25-3.86,0-7.54-.86-11.04-2.59-3.5-1.72-6.26-4.02-8.27-6.89l3.43-3.69c4.34,5.33,9.49,7.99,15.47,7.99,5.12,0,9.12-1.51,11.99-4.53s4.35-7.21,4.46-12.57v-6.97c-3.93,5.46-9.65,8.2-17.16,8.2-6.42,0-11.58-2.56-15.47-7.68s-5.84-12.04-5.84-20.74v-.82ZM805.2,391.39c0,7.07,1.42,12.64,4.25,16.72,2.83,4.08,6.83,6.12,11.99,6.12,7.55,0,12.89-3.38,16.03-10.14v-25.76c-1.43-3.55-3.5-6.26-6.2-8.12-2.7-1.86-5.94-2.79-9.73-2.79-5.16,0-9.17,2.02-12.04,6.07s-4.3,10.01-4.3,17.9Z"/>
      <path class="st1" d="M895.25,418.53c-.61-1.74-1.01-4.32-1.18-7.73-2.15,2.8-4.89,4.96-8.22,6.48s-6.86,2.28-10.58,2.28c-5.33,0-9.64-1.49-12.93-4.46-3.3-2.97-4.94-6.73-4.94-11.27,0-5.39,2.24-9.66,6.73-12.8,4.49-3.14,10.75-4.71,18.77-4.71h11.11v-6.3c0-3.96-1.22-7.08-3.66-9.35-2.44-2.27-6-3.41-10.68-3.41-4.27,0-7.8,1.09-10.6,3.28-2.8,2.19-4.2,4.81-4.2,7.89l-6.15-.05c0-4.41,2.05-8.22,6.15-11.45s9.13-4.84,15.11-4.84,11.05,1.54,14.62,4.63c3.57,3.09,5.4,7.4,5.51,12.93v26.22c0,5.36.56,9.37,1.69,12.04v.61h-6.56ZM876,414.13c4.1,0,7.76-.99,10.99-2.97s5.57-4.63,7.04-7.94v-12.19h-10.96c-6.11.07-10.89,1.19-14.34,3.35-3.45,2.17-5.17,5.15-5.17,8.94,0,3.11,1.15,5.69,3.46,7.73,2.31,2.05,5.3,3.07,8.99,3.07Z"/>
      <path class="st1" d="M923.95,418.53h-6.15v-78.67h6.15v78.67Z"/>
      <path class="st1" d="M937.85,390c0-5.33,1.03-10.12,3.1-14.39,2.07-4.27,4.99-7.59,8.76-9.96,3.77-2.37,8.05-3.56,12.83-3.56,7.38,0,13.35,2.59,17.93,7.76,4.58,5.17,6.86,12.03,6.86,20.56v1.28c0,5.36-1.03,10.18-3.1,14.47-2.07,4.29-4.98,7.59-8.73,9.91-3.76,2.32-8.04,3.48-12.86,3.48-7.34,0-13.31-2.59-17.9-7.76s-6.89-12.03-6.89-20.56v-1.23ZM943.99,391.69c0,6.62,1.72,12.06,5.15,16.31s7.93,6.38,13.5,6.38,10.01-2.13,13.44-6.38,5.15-9.86,5.15-16.83v-1.18c0-4.23-.79-8.11-2.36-11.63s-3.77-6.24-6.61-8.17c-2.83-1.93-6.08-2.89-9.73-2.89-5.46,0-9.92,2.14-13.37,6.43-3.45,4.29-5.17,9.89-5.17,16.83v1.13Z"/>
      <path class="st1" d="M1026.21,368.34c-1.3-.24-2.68-.36-4.15-.36-3.82,0-7.06,1.07-9.71,3.2-2.65,2.13-4.53,5.23-5.66,9.3v38.05h-6.09v-55.42h5.99l.1,8.81c3.24-6.56,8.45-9.83,15.62-9.83,1.71,0,3.06.22,4.05.67l-.15,5.58Z"/>
      <path class="st1" d="M1057.14,419.56c-4.71,0-8.97-1.16-12.78-3.48s-6.77-5.56-8.89-9.71c-2.12-4.15-3.18-8.8-3.18-13.96v-2.2c0-5.33,1.03-10.12,3.1-14.39,2.07-4.27,4.94-7.62,8.63-10.06,3.69-2.44,7.68-3.66,11.98-3.66,6.73,0,12.06,2.3,16.01,6.89,3.94,4.59,5.92,10.87,5.92,18.82v3.43h-39.54v1.18c0,6.28,1.8,11.52,5.4,15.7,3.6,4.18,8.13,6.27,13.6,6.27,3.28,0,6.17-.6,8.68-1.79,2.51-1.19,4.79-3.11,6.84-5.74l3.84,2.92c-4.51,6.52-11.05,9.78-19.62,9.78ZM1056.02,367.31c-4.61,0-8.49,1.69-11.65,5.07-3.16,3.38-5.08,7.92-5.76,13.62h33.24v-.67c-.17-5.33-1.69-9.66-4.56-13.01-2.87-3.35-6.62-5.02-11.27-5.02Z"/>
    </g>
  </g>
</svg>