<?xml version="1.0" encoding="UTF-8"?>
<svg id="Layer_1" xmlns="http://www.w3.org/2000/svg" xmlns:rdf="http://www.w3.org/1999/02/22-rdf-syntax-ns#" xmlns:dc="http://purl.org/dc/elements/1.1/" xmlns:cc="http://creativecommons.org/ns#" version="1.1" viewBox="0 0 191.95 63.76">
  <!-- Generator: Adobe Illustrator 30.4.0, SVG Export Plug-In . SVG Version: 2.1.4 Build 226)  -->
  <defs>
    <style>
      .st0 {
        fill: #96bee6;
      }

      .st1 {
        fill: #fff;
      }

      .st2 {
        fill: #1e407c;
      }
    </style>
  </defs>
  <path class="st1" d="M28.95,63.25C16.37,55.77.51,44.9.51,25.71V5.44C6.31,3.24,15.27.49,28.95.49s23.32,2.99,28.44,4.94v20.27c0,19.36-16.48,30.51-28.44,37.55"/>
  <g>
    <path class="st0" d="M34.83,52.78c.07-.82.43-2.18.43-2.73,0-.28-.09-.38-.3-.38-.29,0-.78.47-1.39,1.1-.81.84-1.7,1.76-2.57,2.67-2.14,2.24-2.04,4.1-2.07,7.27,2.38-1.43,4.56-2.81,6.17-3.91-.24-1.32-.44-2.26-.28-4h0ZM12.42,44.92c0-.36,0-1.13,0-1.26-.03-2.07.46-3.17,1.27-4.24.39-.52.73-.99,1.08-1.46.77-1.01,1.13-1.79,1.29-3.61.04-.43.11-1.11.15-1.41.03-.26.09-.59.37-.59.2,0,.29.16.41.45.18.42.53,1.24.72,1.68.41.93,1.41,1.21,2.46,1.55.77.25,2.24.75,2.83.94.49.16.7.21,1.02.21.45,0,.67-.96.78-1.88.1-.78.22-1.34.49-1.34.3,0,.4.36.41.65.1,2.61-.07,2.88,1.55,4.82,1.18,1.41,1.85,1.47,2.8,1.6-.35-.11-.8-.51-.8-1.37v-.94c0-.47.06-.95.29-1.49.11-.25.24-.71.36-.99.21-.48.11-.6.11-.94,0-.36-.12-.71-.4-1.56-.14-.44-.34-1.08-.53-1.6-.59-1.64-.82-2.02-2.78-2.28-.63-.08-3.38-.47-3.95-.55-2.2-.31-3.92-.42-4.81-1.89-1.07-1.76-.96-3.9-1.99-3.9-.49,0-.75.55-.75,1.34,0,.84.32,2.19.32,4.55,0,2.04-.19,2.6-1.38,4.1-.31.39-.72.96-.99,1.29-.88,1.11-1.28,1.73-1.22,3.03.14,3.35.67,5.8.91,7.08h0ZM36.02,30.76c.09.22.16.46.16.64,0,.41-.1.54-.33.78-.14.12-.29.25-.42.38-.22.12-.43.27-.56.46-.26.37-.45.6-.45.82,0,.07.02.12.07.16-.31-.23-.44-.59-.44-.91,0-.29.09-.44.09-.71,0-.23-.06-.45-.1-.58-.44-1.47-1.18-3.21-1.63-4.4-.46-1.21-.83-1.87-1.35-1.87-.29,0-.55.14-.86.14.42,0,1.07-.39,1.51-.97.52-.68.55-1.17.55-1.82,0-.27-.11-.51-.33-.77.66.68,1.09,1.54,1.54,2.49.99,2.09,1.84,4.38,2.56,6.16h0ZM42.91,26.4c.09.23.28.76.32.88.16.48.42,1.18.42,2.02s-.06,1.11-.29,1.98c-.3,1.11-.43,1.53-.48,2.14-.08-.17-1.67-2.9-1.79-3.12-.12-.22-.22-.44-.22-.69,0-.28.12-.45.46-.66.2-.13.46-.28.64-.37.81-.42,1.01-.93,1.01-1.48,0-.23-.03-.47-.07-.71"/>
    <g>
      <path class="st2" d="M18.48,53.66c3.36,2.62,6.95,4.94,10.47,7.04.03-3.16-.07-5.03,2.07-7.27.87-.91,1.76-1.83,2.57-2.67.61-.63,1.1-1.1,1.39-1.1.21,0,.3.11.3.38s.13,1.32.77,2.56c.8,1.54,1.98,1.74,2.36,1.83,9.17-6.9,16.83-15.93,16.83-28.78V6.93c-2.26-.77-11.55-4.33-26.29-4.33S4.92,6.17,2.66,6.93v18.73c0,5.65,1.48,10.56,3.92,14.87.24-2.6,2-3.83,2-6.39,0-1.78-.5-2.91-.5-4.4,0-2.7,3.64-8.25,5.53-10.52.06-.07.18-.22.33-.22.14,0,.24.09.32.22.19.29.28.45.48.45s.29-.12.29-.3c0-.47-.54-1.25-.54-4.32,0-2.15.5-2.6,1.83-3.91.24-.24.99-.96,1.7-.96.79,0,1.18.47,1.67.96.82.84,1.97,2.32,2.16,2.56.05.07.1.13.21.13.38,0,.7-.11,2.36-.11,3.01,0,7.54.47,9.87,1.24,1.2.39,1.45.66,1.77.66.16,0,.17-.1.17-.18,0-.15-.32-.4-.32-.6,0-.14.11-.24.22-.3,1.74-.93,3.22-1.64,4.58-1.64.79,0,1.18.68,1.51,1.36.26.53.54,1.24.54,1.96,0,1.84-.7,2.96-1.26,3.75.27.28.65.69.88.97.41.49.91,1.14.91,1.8,0,.29-.14.74-.22,1.1-.04.16-.18.48-.46.48-.25,0-.32-.28-.33-.53,0-.05,0-.16,0-.19,0-.53-.15-1.25-.64-1.75-.57-.58-1.08-1-1.74-1h-.22c-1.08,0-1.56.47-1.86.76-.32.31-.57.74-.57,1.3,0,.32.22.71.52,1.3.17.35.62,1.18.86,1.6.21.37.48.5.79.5.75,0,1.4-.1,1.4-.33,0-.06-.03-.11-.14-.11-.04,0-.15.01-.24.01-.98,0-1.5-1.24-1.99-2.37.37-.36.8-.74,1.57-.74.97,0,1.61.65,1.61,1.51,0,.42-.13.78-.21.93-.04.08-.06.13-.06.18,0,.13.17.16.44.22.09.02.28.06.39.1.29.08.59.33.72.68.09.23.28.76.32.88.16.48.42,1.18.42,2.02s-.06,1.11-.29,1.98c-.3,1.11-.43,1.53-.48,2.14.1.19.11.25.16.36.17.35.39,1,.39,1.7v.58c0,1.11-.44,1.98-.93,2.63-.37.51-.91,1.22-1.22,1.61-.2.24-.47.41-.77.41-.14,0-.31-.05-.48-.09-.19-.05-.59-.15-.76-.19-.65-.17-.9-.59-1.11-1.17-.03-.09-.13-.33-.16-.41-.16-.4-.24-.66-.49-.66-.19,0-.36.12-.55.4-.65.98-1.01,1.34-2.16,1.63-.4.1-1.22.27-1.68.37-.69.15-1.92.48-2.62.48-.15,0-.3,0-.46-.03-.95-.13-1.62-.2-2.8-1.6-1.62-1.93-1.45-2.21-1.55-4.82-.01-.29-.11-.65-.41-.65-.27,0-.39.55-.49,1.34-.12.92-.33,1.88-.78,1.88-.32,0-.53-.05-1.02-.21-.59-.19-2.06-.69-2.83-.94-1.05-.35-2.05-.62-2.46-1.55-.19-.44-.54-1.25-.72-1.68-.13-.3-.22-.45-.41-.45-.28,0-.34.33-.37.59-.04.3-.11.98-.15,1.41-.16,1.82-.52,2.59-1.29,3.61-.35.46-.69.94-1.08,1.46-.81,1.07-1.29,2.16-1.27,4.24,0,.13,0,.91,0,1.26.07,3.08.85,4.6,6.05,8.74h0ZM37.1,44.21c-.24.06-.72.18-2.85.18-3.23,0-3.77-.79-3.77-1.42,0-1.05,4.63-1.79,6.45-1.79s2.52.56,2.52.99c0,.49-.79,1.67-2.34,2.05h0ZM30.85,24.27c0-.74-.84-1.83-2.3-1.83-1.3,0-2.29.98-2.55,1.74.31.6.61,1.24,1.85,1.61.16.05.33.05.33.19,0,.2-.21.3-.65.3-1.41,0-2.25-.58-2.62-1.06-.36.05-.79.19-1.31.21-.43.02-.63-.27-.63-.66,0-.25.07-.52.22-.82.08-.17.17-.34.23-.46.22-.43.55-1.38,1.84-2.12.15-.09.54-.32.74-.44.73-.43,1.28-.53,2.15-.53h.64c1.04,0,1.57.29,2.03.68.93.78,1.44,1.21,1.44,1.79,0,.65-.03,1.14-.55,1.82-.44.58-1.09.97-1.51.97-.12,0-.15-.06-.15-.13,0-.09.1-.13.2-.21.34-.28.5-.77.61-1.04h0ZM17.86,20.11c.32,0,.56-.21,1.05-.75,1.08-1.19,2.12-1.35,2.12-1.87,0-.23-.15-.45-.3-.69-1.15-1.8-1.64-2.77-2.33-4.08-.25-.47-.57-.8-.82-.8-.4,0-.82.46-1.06.86-.34.56-.69,1.2-.69,1.77,0,.87.21,2.46.58,3.48.39,1.1.96,2.06,1.45,2.06h0ZM38.76,17.74c-.05-.03-.24-.1-.24-.28,0-.21.15-.43.46-.84.71-.96,1.69-2.13,2.05-2.13.18,0,.28.12.5.53.13.24.24.65.24,1.03,0,1.27-.44,2.16-1.12,3.17-.34-.32-.97-.95-1.9-1.49h0ZM37.5,37c0-.43.35-1.1.35-1.69,0-.71-.87-.94-1.55-1.03-1.42-.2-1.9-.13-1.9-.45,0-.22.19-.44.45-.82.38-.55,1.29-.76,1.78-.82.64-.09,1.35-.17,2.19-.17.95,0,1.76.14,2.13.21.87.15,1.01.52,1.01.92v.41c0,.41-.34.62-.95.76-.15.03-.36.07-.47.09-.44.09-.99.18-1.18.74-.42,1.19-1.14,2.13-1.67,2.11-.1,0-.2-.08-.2-.25"/>
      <path class="st1" d="M140.25,16.67c-.26-.09-1.28-.42-2.22-.42-2.03,0-2.84,1.1-2.84,2.07,0,1.27.94,1.86,2.03,2.13l1.73.45c2.43.65,5.13,1.68,5.13,5.29,0,3.31-2.13,5.54-6.83,5.54-1.82,0-3.71-.2-5.93-.97v-4.6h3.13v2.25c.5.14,1.92.49,3.11.49,1.85,0,2.74-.77,2.74-2.09,0-1.09-.62-1.88-2.84-2.48l-1.49-.41c-3.4-.92-4.56-2.56-4.56-5.25s1.84-4.96,6.52-4.96c2.01,0,4.02.35,5.44.92v4.15h-3.13v-2.11h0ZM162.79,25.9c-2.84,0-3.73.6-3.73,1.72,0,.77.55,1.57,1.92,1.57s2.79-1.09,2.79-3.28h-.97ZM163.81,23.14c0-1.8-.87-2.49-2.63-2.49-1.12,0-1.93.29-2.16.37v1.74h-2.82v-3.31c.47-.26,2.56-1.34,4.94-1.34,3.62,0,5.96,1.47,5.96,5.12v5.65h1.35v2.54h-4.21l-.1-1.77h-.05c-.26.36-1.21,2.07-4.14,2.07s-4.35-1.74-4.35-3.78c0-2.48,1.9-4.18,6.67-4.18h1.56v-.62h0ZM147.27,15.63h3.48v2.79h3.48v2.54h-3.48v5.8c0,1.74.61,2.29,2.05,2.29.54,0,1.28-.14,1.55-.2v2.47c-.29.09-1.55.41-2.87.41-2.56,0-4.22-1.38-4.22-3.67v-7.11h-1.77v-2.54h1.77v-2.79h0ZM170.74,15.63h3.48v2.79h3.48v2.54h-3.48v5.8c0,1.74.61,2.29,2.05,2.29.54,0,1.28-.14,1.55-.2v2.47c-.29.09-1.55.41-2.87.41-2.56,0-4.22-1.38-4.22-3.67v-7.11h-1.77v-2.54h1.77v-2.79h0ZM115.2,20.95h-1.69v-2.54h4.78l.1,1.7h.05c.23-.36,1.37-2,4-2,3.3,0,5.04,2.33,5.04,5.19v5.59h1.49v2.54h-6.39v-2.54h1.42v-4.98c0-1.81-1.01-2.8-2.66-2.8-1.49,0-2.64.84-2.64,2.8v4.98h1.49v2.54h-6.4v-2.54h1.42v-7.94h0ZM98.24,20.95h-1.69v-2.54h4.78l.1,1.7h.05c.23-.36,1.37-2,4-2,3.3,0,5.04,2.33,5.04,5.19v5.59h1.49v2.54h-6.39v-2.54h1.42v-4.98c0-1.81-1.01-2.8-2.66-2.8-1.49,0-2.64.84-2.64,2.8v4.98h1.49v2.54h-6.4v-2.54h1.42v-7.94h0ZM187.67,23.31c0-1.79-1.02-2.81-2.64-2.81s-2.51,1.05-2.66,2.81h5.3,0ZM182.4,25.7c.1,2.07,1.69,3.33,4.13,3.33,2.15,0,3.46-.59,4.03-.82v2.69c-.53.21-1.98.82-4.8.82-5.03,0-7.14-3.14-7.14-6.74,0-4.06,2.46-6.87,6.54-6.87,4.48,0,6.3,3.38,6.3,7.59h-9.06ZM91.23,23.31c0-1.79-1.02-2.81-2.64-2.81s-2.51,1.05-2.66,2.81h5.3,0ZM85.95,25.7c.1,2.07,1.69,3.33,4.13,3.33,2.15,0,3.46-.59,4.03-.82v2.69c-.53.21-1.98.82-4.8.82-5.03,0-7.14-3.14-7.14-6.74,0-4.06,2.46-6.87,6.54-6.87,4.48,0,6.3,3.38,6.3,7.59h-9.06ZM74.74,22.17c1.82,0,3-1.04,3-2.81,0-1.6-1.04-2.81-3.05-2.81h-2.22v5.62h2.27,0ZM68.83,16.55h-1.72v-2.54h8c4.21,0,6.4,2.21,6.4,5.35,0,3.73-2.94,5.35-6.4,5.35h-2.65v4.18h1.72v2.54h-7.07v-2.54h1.72v-12.34"/>
    </g>
  </g>
</svg>